<svg width="1920" height="1048" viewBox="0 0 1920 1048" fill="none" xmlns="http://www.w3.org/2000/svg">
<g opacity="0.2">
<circle cx="1654" cy="1042" r="6" transform="rotate(-90 1654 1042)" fill="#FD7274"/>
<circle cx="1696" cy="1042" r="6" transform="rotate(-90 1696 1042)" fill="#FD7274"/>
<circle cx="1738" cy="1042" r="6" transform="rotate(-90 1738 1042)" fill="#FD7274"/>
<circle cx="1780" cy="1042" r="6" transform="rotate(-90 1780 1042)" fill="#FD7274"/>
<circle cx="1822" cy="1042" r="6" transform="rotate(-90 1822 1042)" fill="#FD7274"/>
<circle cx="1864" cy="1042" r="6" transform="rotate(-90 1864 1042)" fill="#FD7274"/>
<circle cx="1906" cy="1042" r="6" transform="rotate(-90 1906 1042)" fill="#FD7274"/>
<circle cx="1654" cy="1000" r="6" transform="rotate(-90 1654 1000)" fill="#FD7274"/>
<circle cx="1696" cy="1000" r="6" transform="rotate(-90 1696 1000)" fill="#FD7274"/>
<circle cx="1738.44" cy="1000.34" r="6" transform="rotate(-90 1738.44 1000.34)" fill="#FD7274"/>
<circle cx="1780" cy="1000" r="6" transform="rotate(-90 1780 1000)" fill="#FD7274"/>
<circle cx="1822" cy="1000" r="6" transform="rotate(-90 1822 1000)" fill="#FD7274"/>
<circle cx="1864" cy="1000" r="6" transform="rotate(-90 1864 1000)" fill="#FD7274"/>
<circle cx="1906" cy="1000" r="6" transform="rotate(-90 1906 1000)" fill="#FD7274"/>
<circle cx="1654" cy="958" r="6" transform="rotate(-90 1654 958)" fill="#FD7274"/>
<circle cx="1696" cy="958" r="6" transform="rotate(-90 1696 958)" fill="#FD7274"/>
<circle cx="1738" cy="958" r="6" transform="rotate(-90 1738 958)" fill="#FD7274"/>
<circle cx="1780" cy="958" r="6" transform="rotate(-90 1780 958)" fill="#FD7274"/>
<circle cx="1822" cy="958" r="6" transform="rotate(-90 1822 958)" fill="#FD7274"/>
<circle cx="1864" cy="958" r="6" transform="rotate(-90 1864 958)" fill="#FD7274"/>
<circle cx="1906" cy="958" r="6" transform="rotate(-90 1906 958)" fill="#FD7274"/>
</g>
<circle opacity="0.5" cx="1873" cy="102" r="205" stroke="#FFB268" stroke-width="2" stroke-dasharray="5 5"/>
<ellipse cx="-0.5" cy="303" rx="37.5" ry="38" fill="url(#paint0_linear_2628_883)"/>
<ellipse cx="189.5" cy="928" rx="98.5" ry="100" fill="url(#paint1_linear_2628_883)"/>
<ellipse cx="1797.5" cy="809" rx="72.5" ry="73" fill="url(#paint2_linear_2628_883)"/>
<defs>
<linearGradient id="paint0_linear_2628_883" x1="-0.500002" y1="265" x2="37.801" y2="340.594" gradientUnits="userSpaceOnUse">
<stop stop-color="#FF7E82"/>
<stop offset="1" stop-color="#FF7E82" stop-opacity="0"/>
</linearGradient>
<linearGradient id="paint1_linear_2628_883" x1="189.5" y1="828" x2="290.404" y2="1026.78" gradientUnits="userSpaceOnUse">
<stop stop-color="#FF7E82"/>
<stop offset="1" stop-color="#FF7E82" stop-opacity="0"/>
</linearGradient>
<linearGradient id="paint2_linear_2628_883" x1="1797.5" y1="736" x2="1870.8" y2="881.597" gradientUnits="userSpaceOnUse">
<stop stop-color="#FF7E82"/>
<stop offset="1" stop-color="#FF7E82" stop-opacity="0"/>
</linearGradient>
</defs>
</svg>
