<svg width="790" height="956" viewBox="0 0 790 956" fill="none" xmlns="http://www.w3.org/2000/svg">
<path opacity="0.4" d="M637.009 83.1546C718.141 149.669 777.28 251.398 773.859 349.214C769.949 447.519 702.99 541.911 622.346 611.36C541.703 680.321 447.374 724.338 346.692 731.185C245.521 737.543 137.996 706.731 72.9922 637.771C8.47733 568.321 -13.5164 460.724 7.98858 374.646C29.9823 289.057 94.986 224.499 159.99 158.473C224.505 92.4471 289.019 24.4651 371.618 5.39098C454.706 -13.194 556.365 17.1289 637.009 83.1546Z" fill="url(#paint0_linear_1433_179)"/>
<path d="M645.202 697.997C610.615 673.791 602.78 628.857 604.146 588.455C604.369 581.725 603.631 574.591 606.832 568.691C610.033 562.791 617.51 558.73 623.532 561.557C628.524 563.913 630.696 569.745 633.494 574.568C637.228 580.993 642.699 586.227 649.276 589.666C653.552 591.91 658.858 593.255 663.089 590.922C668.909 587.714 669.581 579.706 669.536 572.976C669.536 560.458 669.461 547.955 669.312 535.467C668.91 528.761 669.59 522.035 671.327 515.546C673.409 509.175 678.043 503.275 684.378 501.48C690.714 499.686 698.616 503.387 700.049 509.938C700.295 512.712 700.363 515.5 700.25 518.283C700.429 521.087 701.728 524.161 704.347 525.013C706.966 525.866 709.697 523.914 711.712 521.94C718.607 515.21 723.308 506.438 727.673 497.779C732.039 489.12 736.314 480.214 742.583 472.833C748.851 465.452 757.514 459.597 767.208 459.036C776.901 458.476 786.997 464.443 789.415 473.865C791.833 483.287 786.348 492.911 780.46 500.561C771.576 511.916 761.103 521.927 749.366 530.285C747.075 531.539 745.246 533.497 744.15 535.871C742.695 540.357 746.926 544.844 751.336 546.257C756.328 547.918 761.745 547.402 767.006 548.03C772.267 548.658 777.864 550.946 779.856 555.881C782.587 562.746 776.856 569.925 771.237 574.636C759.955 584.058 747.143 591.471 733.359 596.553C728.435 598.348 723.263 599.941 719.278 603.395C715.294 606.85 712.921 612.885 715.316 617.618C717.711 622.352 723.868 623.855 729.039 622.89C734.21 621.925 738.799 619.144 743.724 617.282C752.925 613.805 764.79 614.433 770.588 622.396C772.384 625.14 773.521 628.263 773.91 631.521C774.298 634.779 773.927 638.083 772.827 641.173C770.586 647.323 767.138 652.96 762.686 657.751C748.024 675.306 728.973 688.645 707.481 696.404C686.147 703.807 666.38 705.826 645.18 698.042" fill="#639C38"/>
<path d="M723.888 90.1255L712.389 94.2624L707.454 79.1313C698.388 51.23 669.494 36.4137 642.945 45.834C616.395 55.2544 602.261 85.8538 611.327 113.755L616.261 128.886L604.717 133.046C600.315 134.765 596.74 138.126 594.736 142.43C592.732 146.735 592.452 151.651 593.955 156.158L625.952 254.611C626.616 256.842 627.719 258.916 629.195 260.709C630.671 262.503 632.49 263.979 634.544 265.051C636.598 266.123 638.844 266.768 641.151 266.948C643.457 267.128 645.776 266.84 647.969 266.1L767.14 223.18C771.6 221.464 775.225 218.073 777.254 213.72C779.282 209.368 779.554 204.393 778.014 199.842L745.994 101.389C745.313 99.1647 744.193 97.1009 742.702 95.3213C741.211 93.5417 739.38 92.0827 737.317 91.0315C735.253 89.9802 733.001 89.3582 730.694 89.2026C728.387 89.0469 726.072 89.3608 723.888 90.1255ZM633.053 105.864C630.609 98.6088 631.047 90.6831 634.277 83.7468C637.507 76.8105 643.278 71.402 650.38 68.6543C653.887 67.4461 657.6 66.9616 661.297 67.2297C664.994 67.4978 668.6 68.513 671.899 70.2147C675.198 71.9165 678.122 74.2698 680.498 77.1345C682.874 79.9991 684.653 83.3162 685.728 86.888L690.64 102.019L637.965 120.995L633.053 105.864ZM700.041 193.232L708.213 218.368C708.363 218.872 708.315 219.415 708.078 219.884C707.841 220.353 707.433 220.712 706.94 220.887L695.485 225.001C695.03 225.128 694.542 225.073 694.126 224.847C693.71 224.62 693.397 224.24 693.253 223.787L685.013 198.763C680.47 198.514 676.111 196.873 672.519 194.061C668.928 191.248 666.275 187.398 664.917 183.025C662.975 177.245 663.329 170.932 665.905 165.408C668.482 159.885 673.08 155.579 678.739 153.393C681.532 152.432 684.49 152.047 687.434 152.261C690.379 152.475 693.25 153.284 695.878 154.639C698.505 155.994 700.835 157.868 702.728 160.15C704.621 162.431 706.038 165.072 706.896 167.917C708.332 172.358 708.451 177.125 707.238 181.634C706.024 186.142 703.531 190.197 700.063 193.3L700.041 193.232Z" fill="#01B4BC"/>
<path d="M606.594 801L382.558 799.971C369.62 799.9 357.239 794.715 348.135 785.554C339.03 776.393 333.947 764.005 334 751.112L336.378 191.413C336.404 185.026 337.694 178.706 340.172 172.815C342.651 166.924 346.271 161.577 350.824 157.081C355.377 152.585 360.775 149.027 366.709 146.611C372.643 144.195 378.996 142.968 385.406 143.001L609.42 144.029C622.358 144.094 634.741 149.274 643.85 158.431C652.958 167.587 658.047 179.973 658 192.866L655.622 752.542C655.596 758.932 654.307 765.254 651.828 771.148C649.35 777.041 645.731 782.39 641.179 786.89C636.626 791.39 631.229 794.952 625.294 797.373C619.36 799.794 613.006 801.026 606.594 801Z" fill="#455A64"/>
<path d="M609.153 162.761H565.902C564.49 162.788 563.098 163.092 561.804 163.657C560.51 164.223 559.341 165.038 558.361 166.056C557.382 167.074 556.613 168.276 556.097 169.592C555.582 170.908 555.33 172.313 555.357 173.727V181.581C555.383 182.994 555.131 184.398 554.616 185.713C554.1 187.028 553.33 188.228 552.351 189.244C551.371 190.261 550.201 191.073 548.907 191.636C547.614 192.199 546.222 192.501 544.812 192.524L460.498 192.144C457.645 192.068 454.94 190.861 452.975 188.788C451.011 186.715 449.948 183.946 450.02 181.089V173.234C450.092 170.381 449.032 167.615 447.072 165.543C445.113 163.471 442.413 162.262 439.564 162.18H424.35L386.483 162.001C377.476 161.947 368.815 165.47 362.396 171.799C355.977 178.128 352.323 186.747 352.234 195.769L350 742.732C349.98 747.208 350.839 751.644 352.53 755.786C354.221 759.929 356.71 763.698 359.855 766.877C363 770.057 366.74 772.584 370.86 774.316C374.98 776.048 379.401 776.95 383.869 776.97L606.562 778C611.033 778.02 615.464 777.159 619.603 775.464C623.742 773.769 627.507 771.274 630.683 768.122C633.859 764.969 636.384 761.221 638.114 757.091C639.844 752.962 640.745 748.531 640.765 744.052L642.999 197.089C643.053 188.042 639.518 179.344 633.171 172.907C626.824 166.47 618.185 162.821 609.153 162.761Z" fill="white"/>
<g opacity="0.4" filter="url(#filter0_f_1433_179)">
<path d="M567.109 725L423.671 724.276C422.181 724.276 420.981 722.376 421 720.069L421.155 676.207C421.155 673.945 422.374 672 423.864 672L566.524 672.765C567.042 672.768 567.574 672.791 568.036 673.024C568.56 673.288 569.02 673.712 569.365 674.257C569.862 675.045 570.08 676.028 569.973 676.999L569.838 720.815C569.838 723.145 568.599 725.022 567.109 725Z" fill="url(#paint1_linear_1433_179)"/>
</g>
<path d="M578.663 718L413.083 717.276C411.363 717.276 409.978 715.376 410 713.069L410.179 669.207C410.179 666.945 411.586 665 413.307 665L578.21 665.766C578.66 665.768 579.116 665.789 579.538 665.946C580.224 666.2 580.827 666.654 581.267 667.257C581.841 668.045 582.093 669.028 581.969 669.999L581.813 713.815C581.813 716.145 580.383 718.022 578.663 718Z" fill="url(#paint2_linear_1433_179)"/>
<path d="M469.912 695.096C469.08 695.096 468.28 694.963 467.512 694.696C466.755 694.429 466.168 694.077 465.752 693.64L466.216 692.728C466.621 693.133 467.16 693.464 467.832 693.72C468.504 693.965 469.197 694.088 469.912 694.088C470.915 694.088 471.667 693.907 472.168 693.544C472.669 693.171 472.92 692.691 472.92 692.104C472.92 691.656 472.781 691.299 472.504 691.032C472.237 690.765 471.907 690.563 471.512 690.424C471.117 690.275 470.568 690.115 469.864 689.944C469.021 689.731 468.349 689.528 467.848 689.336C467.347 689.133 466.915 688.829 466.552 688.424C466.2 688.019 466.024 687.469 466.024 686.776C466.024 686.211 466.173 685.699 466.472 685.24C466.771 684.771 467.229 684.397 467.848 684.12C468.467 683.843 469.235 683.704 470.152 683.704C470.792 683.704 471.416 683.795 472.024 683.976C472.643 684.147 473.176 684.387 473.624 684.696L473.224 685.64C472.755 685.331 472.253 685.101 471.72 684.952C471.187 684.792 470.664 684.712 470.152 684.712C469.171 684.712 468.429 684.904 467.928 685.288C467.437 685.661 467.192 686.147 467.192 686.744C467.192 687.192 467.325 687.555 467.592 687.832C467.869 688.099 468.211 688.307 468.616 688.456C469.032 688.595 469.587 688.749 470.28 688.92C471.101 689.123 471.763 689.325 472.264 689.528C472.776 689.72 473.208 690.019 473.56 690.424C473.912 690.819 474.088 691.357 474.088 692.04C474.088 692.605 473.933 693.123 473.624 693.592C473.325 694.051 472.861 694.419 472.232 694.696C471.603 694.963 470.829 695.096 469.912 695.096ZM484.012 686.584V695H482.924V693.464C482.625 693.976 482.214 694.376 481.692 694.664C481.169 694.941 480.572 695.08 479.9 695.08C478.801 695.08 477.932 694.776 477.292 694.168C476.662 693.549 476.348 692.648 476.348 691.464V686.584H477.484V691.352C477.484 692.237 477.702 692.909 478.14 693.368C478.577 693.827 479.201 694.056 480.012 694.056C480.897 694.056 481.596 693.789 482.108 693.256C482.62 692.712 482.876 691.96 482.876 691V686.584H484.012ZM491.529 686.52C492.319 686.52 493.033 686.701 493.673 687.064C494.313 687.416 494.815 687.917 495.177 688.568C495.54 689.219 495.721 689.96 495.721 690.792C495.721 691.624 495.54 692.365 495.177 693.016C494.815 693.667 494.313 694.173 493.673 694.536C493.033 694.899 492.319 695.08 491.529 695.08C490.825 695.08 490.191 694.931 489.625 694.632C489.071 694.333 488.623 693.901 488.281 693.336V695H487.193V683.128H488.329V688.184C488.681 687.64 489.129 687.229 489.673 686.952C490.228 686.664 490.847 686.52 491.529 686.52ZM491.449 694.072C492.036 694.072 492.569 693.939 493.049 693.672C493.529 693.395 493.903 693.005 494.169 692.504C494.447 692.003 494.585 691.432 494.585 690.792C494.585 690.152 494.447 689.581 494.169 689.08C493.903 688.579 493.529 688.195 493.049 687.928C492.569 687.651 492.036 687.512 491.449 687.512C490.852 687.512 490.313 687.651 489.833 687.928C489.364 688.195 488.991 688.579 488.713 689.08C488.447 689.581 488.313 690.152 488.313 690.792C488.313 691.432 488.447 692.003 488.713 692.504C488.991 693.005 489.364 693.395 489.833 693.672C490.313 693.939 490.852 694.072 491.449 694.072ZM508.533 686.52C509.589 686.52 510.416 686.824 511.013 687.432C511.621 688.04 511.925 688.936 511.925 690.12V695H510.789V690.232C510.789 689.357 510.576 688.691 510.149 688.232C509.733 687.773 509.141 687.544 508.373 687.544C507.498 687.544 506.81 687.816 506.309 688.36C505.808 688.893 505.557 689.635 505.557 690.584V695H504.421V690.232C504.421 689.357 504.208 688.691 503.781 688.232C503.365 687.773 502.768 687.544 501.989 687.544C501.125 687.544 500.437 687.816 499.925 688.36C499.424 688.893 499.173 689.635 499.173 690.584V695H498.037V686.584H499.125V688.12C499.424 687.608 499.84 687.213 500.373 686.936C500.906 686.659 501.52 686.52 502.213 686.52C502.917 686.52 503.525 686.669 504.037 686.968C504.56 687.267 504.949 687.709 505.205 688.296C505.514 687.741 505.957 687.309 506.533 687C507.12 686.68 507.786 686.52 508.533 686.52ZM515.006 686.584H516.142V695H515.006V686.584ZM515.582 684.744C515.347 684.744 515.15 684.664 514.99 684.504C514.83 684.344 514.75 684.152 514.75 683.928C514.75 683.715 514.83 683.528 514.99 683.368C515.15 683.208 515.347 683.128 515.582 683.128C515.817 683.128 516.014 683.208 516.174 683.368C516.334 683.517 516.414 683.699 516.414 683.912C516.414 684.147 516.334 684.344 516.174 684.504C516.014 684.664 515.817 684.744 515.582 684.744ZM523.735 694.488C523.521 694.68 523.255 694.829 522.935 694.936C522.625 695.032 522.3 695.08 521.959 695.08C521.169 695.08 520.561 694.867 520.135 694.44C519.708 694.013 519.495 693.411 519.495 692.632V687.544H517.991V686.584H519.495V684.744H520.631V686.584H523.191V687.544H520.631V692.568C520.631 693.069 520.753 693.453 520.999 693.72C521.255 693.976 521.617 694.104 522.087 694.104C522.321 694.104 522.545 694.067 522.759 693.992C522.983 693.917 523.175 693.811 523.335 693.672L523.735 694.488Z" fill="#E8E8E3"/>
<path d="M392.835 329.779H388.935L388.095 331.649H387.325L390.525 324.649H391.255L394.455 331.649H393.675L392.835 329.779ZM392.565 329.179L390.885 325.419L389.205 329.179H392.565ZM400.214 324.229V331.649H399.534V330.609C399.32 330.963 399.037 331.233 398.684 331.419C398.337 331.606 397.944 331.699 397.504 331.699C397.01 331.699 396.564 331.586 396.164 331.359C395.764 331.133 395.45 330.816 395.224 330.409C394.997 330.003 394.884 329.539 394.884 329.019C394.884 328.499 394.997 328.036 395.224 327.629C395.45 327.223 395.764 326.909 396.164 326.689C396.564 326.463 397.01 326.349 397.504 326.349C397.93 326.349 398.314 326.439 398.654 326.619C399 326.793 399.284 327.049 399.504 327.389V324.229H400.214ZM397.564 331.069C397.93 331.069 398.26 330.986 398.554 330.819C398.854 330.646 399.087 330.403 399.254 330.089C399.427 329.776 399.514 329.419 399.514 329.019C399.514 328.619 399.427 328.263 399.254 327.949C399.087 327.636 398.854 327.396 398.554 327.229C398.26 327.056 397.93 326.969 397.564 326.969C397.19 326.969 396.854 327.056 396.554 327.229C396.26 327.396 396.027 327.636 395.854 327.949C395.687 328.263 395.604 328.619 395.604 329.019C395.604 329.419 395.687 329.776 395.854 330.089C396.027 330.403 396.26 330.646 396.554 330.819C396.854 330.986 397.19 331.069 397.564 331.069ZM406.991 324.229V331.649H406.311V330.609C406.098 330.963 405.815 331.233 405.461 331.419C405.115 331.606 404.721 331.699 404.281 331.699C403.788 331.699 403.341 331.586 402.941 331.359C402.541 331.133 402.228 330.816 402.001 330.409C401.775 330.003 401.661 329.539 401.661 329.019C401.661 328.499 401.775 328.036 402.001 327.629C402.228 327.223 402.541 326.909 402.941 326.689C403.341 326.463 403.788 326.349 404.281 326.349C404.708 326.349 405.091 326.439 405.431 326.619C405.778 326.793 406.061 327.049 406.281 327.389V324.229H406.991ZM404.341 331.069C404.708 331.069 405.038 330.986 405.331 330.819C405.631 330.646 405.865 330.403 406.031 330.089C406.205 329.776 406.291 329.419 406.291 329.019C406.291 328.619 406.205 328.263 406.031 327.949C405.865 327.636 405.631 327.396 405.331 327.229C405.038 327.056 404.708 326.969 404.341 326.969C403.968 326.969 403.631 327.056 403.331 327.229C403.038 327.396 402.805 327.636 402.631 327.949C402.465 328.263 402.381 328.619 402.381 329.019C402.381 329.419 402.465 329.776 402.631 330.089C402.805 330.403 403.038 330.646 403.331 330.819C403.631 330.986 403.968 331.069 404.341 331.069ZM409.649 327.419C409.815 327.066 410.062 326.799 410.389 326.619C410.722 326.439 411.132 326.349 411.619 326.349V327.039L411.449 327.029C410.895 327.029 410.462 327.199 410.149 327.539C409.835 327.879 409.679 328.356 409.679 328.969V331.649H408.969V326.389H409.649V327.419ZM417.435 329.239H413.035C413.075 329.786 413.285 330.229 413.665 330.569C414.045 330.903 414.525 331.069 415.105 331.069C415.432 331.069 415.732 331.013 416.005 330.899C416.279 330.779 416.515 330.606 416.715 330.379L417.115 330.839C416.882 331.119 416.589 331.333 416.235 331.479C415.889 331.626 415.505 331.699 415.085 331.699C414.545 331.699 414.065 331.586 413.645 331.359C413.232 331.126 412.909 330.806 412.675 330.399C412.442 329.993 412.325 329.533 412.325 329.019C412.325 328.506 412.435 328.046 412.655 327.639C412.882 327.233 413.189 326.916 413.575 326.689C413.969 326.463 414.409 326.349 414.895 326.349C415.382 326.349 415.819 326.463 416.205 326.689C416.592 326.916 416.895 327.233 417.115 327.639C417.335 328.039 417.445 328.499 417.445 329.019L417.435 329.239ZM414.895 326.959C414.389 326.959 413.962 327.123 413.615 327.449C413.275 327.769 413.082 328.189 413.035 328.709H416.765C416.719 328.189 416.522 327.769 416.175 327.449C415.835 327.123 415.409 326.959 414.895 326.959ZM420.3 331.699C419.874 331.699 419.464 331.639 419.07 331.519C418.684 331.393 418.38 331.236 418.16 331.049L418.48 330.489C418.7 330.663 418.977 330.806 419.31 330.919C419.644 331.026 419.99 331.079 420.35 331.079C420.83 331.079 421.184 331.006 421.41 330.859C421.644 330.706 421.76 330.493 421.76 330.219C421.76 330.026 421.697 329.876 421.57 329.769C421.444 329.656 421.284 329.573 421.09 329.519C420.897 329.459 420.64 329.403 420.32 329.349C419.894 329.269 419.55 329.189 419.29 329.109C419.03 329.023 418.807 328.879 418.62 328.679C418.44 328.479 418.35 328.203 418.35 327.849C418.35 327.409 418.534 327.049 418.9 326.769C419.267 326.489 419.777 326.349 420.43 326.349C420.77 326.349 421.11 326.396 421.45 326.489C421.79 326.576 422.07 326.693 422.29 326.839L421.98 327.409C421.547 327.109 421.03 326.959 420.43 326.959C419.977 326.959 419.634 327.039 419.4 327.199C419.174 327.359 419.06 327.569 419.06 327.829C419.06 328.029 419.124 328.189 419.25 328.309C419.384 328.429 419.547 328.519 419.74 328.579C419.934 328.633 420.2 328.689 420.54 328.749C420.96 328.829 421.297 328.909 421.55 328.989C421.804 329.069 422.02 329.206 422.2 329.399C422.38 329.593 422.47 329.859 422.47 330.199C422.47 330.659 422.277 331.026 421.89 331.299C421.51 331.566 420.98 331.699 420.3 331.699ZM425.193 331.699C424.766 331.699 424.356 331.639 423.963 331.519C423.576 331.393 423.273 331.236 423.053 331.049L423.373 330.489C423.593 330.663 423.87 330.806 424.203 330.919C424.536 331.026 424.883 331.079 425.243 331.079C425.723 331.079 426.076 331.006 426.303 330.859C426.536 330.706 426.653 330.493 426.653 330.219C426.653 330.026 426.59 329.876 426.463 329.769C426.336 329.656 426.176 329.573 425.983 329.519C425.79 329.459 425.533 329.403 425.213 329.349C424.786 329.269 424.443 329.189 424.183 329.109C423.923 329.023 423.7 328.879 423.513 328.679C423.333 328.479 423.243 328.203 423.243 327.849C423.243 327.409 423.426 327.049 423.793 326.769C424.16 326.489 424.67 326.349 425.323 326.349C425.663 326.349 426.003 326.396 426.343 326.489C426.683 326.576 426.963 326.693 427.183 326.839L426.873 327.409C426.44 327.109 425.923 326.959 425.323 326.959C424.87 326.959 424.526 327.039 424.293 327.199C424.066 327.359 423.953 327.569 423.953 327.829C423.953 328.029 424.016 328.189 424.143 328.309C424.276 328.429 424.44 328.519 424.633 328.579C424.826 328.633 425.093 328.689 425.433 328.749C425.853 328.829 426.19 328.909 426.443 328.989C426.696 329.069 426.913 329.206 427.093 329.399C427.273 329.593 427.363 329.859 427.363 330.199C427.363 330.659 427.17 331.026 426.783 331.299C426.403 331.566 425.873 331.699 425.193 331.699Z" fill="#455A64"/>
<path d="M478.96 277.06C478.053 277.06 477.347 276.8 476.84 276.28C476.333 275.76 476.08 275.003 476.08 274.01V270H476.82V273.98C476.82 274.793 477.003 275.4 477.37 275.8C477.737 276.2 478.267 276.4 478.96 276.4C479.66 276.4 480.193 276.2 480.56 275.8C480.927 275.4 481.11 274.793 481.11 273.98V270H481.83V274.01C481.83 275.003 481.577 275.76 481.07 276.28C480.57 276.8 479.867 277.06 478.96 277.06ZM485.32 277.05C484.893 277.05 484.483 276.99 484.09 276.87C483.703 276.743 483.4 276.587 483.18 276.4L483.5 275.84C483.72 276.013 483.997 276.157 484.33 276.27C484.663 276.377 485.01 276.43 485.37 276.43C485.85 276.43 486.203 276.357 486.43 276.21C486.663 276.057 486.78 275.843 486.78 275.57C486.78 275.377 486.717 275.227 486.59 275.12C486.463 275.007 486.303 274.923 486.11 274.87C485.917 274.81 485.66 274.753 485.34 274.7C484.913 274.62 484.57 274.54 484.31 274.46C484.05 274.373 483.827 274.23 483.64 274.03C483.46 273.83 483.37 273.553 483.37 273.2C483.37 272.76 483.553 272.4 483.92 272.12C484.287 271.84 484.797 271.7 485.45 271.7C485.79 271.7 486.13 271.747 486.47 271.84C486.81 271.927 487.09 272.043 487.31 272.19L487 272.76C486.567 272.46 486.05 272.31 485.45 272.31C484.997 272.31 484.653 272.39 484.42 272.55C484.193 272.71 484.08 272.92 484.08 273.18C484.08 273.38 484.143 273.54 484.27 273.66C484.403 273.78 484.567 273.87 484.76 273.93C484.953 273.983 485.22 274.04 485.56 274.1C485.98 274.18 486.317 274.26 486.57 274.34C486.823 274.42 487.04 274.557 487.22 274.75C487.4 274.943 487.49 275.21 487.49 275.55C487.49 276.01 487.297 276.377 486.91 276.65C486.53 276.917 486 277.05 485.32 277.05ZM493.383 274.59H488.983C489.023 275.137 489.233 275.58 489.613 275.92C489.993 276.253 490.473 276.42 491.053 276.42C491.379 276.42 491.679 276.363 491.953 276.25C492.226 276.13 492.463 275.957 492.663 275.73L493.063 276.19C492.829 276.47 492.536 276.683 492.183 276.83C491.836 276.977 491.453 277.05 491.033 277.05C490.493 277.05 490.013 276.937 489.593 276.71C489.179 276.477 488.856 276.157 488.623 275.75C488.389 275.343 488.273 274.883 488.273 274.37C488.273 273.857 488.383 273.397 488.603 272.99C488.829 272.583 489.136 272.267 489.523 272.04C489.916 271.813 490.356 271.7 490.843 271.7C491.329 271.7 491.766 271.813 492.153 272.04C492.539 272.267 492.843 272.583 493.063 272.99C493.283 273.39 493.393 273.85 493.393 274.37L493.383 274.59ZM490.843 272.31C490.336 272.31 489.909 272.473 489.563 272.8C489.223 273.12 489.029 273.54 488.983 274.06H492.713C492.666 273.54 492.469 273.12 492.123 272.8C491.783 272.473 491.356 272.31 490.843 272.31ZM495.518 272.77C495.684 272.417 495.931 272.15 496.258 271.97C496.591 271.79 497.001 271.7 497.488 271.7V272.39L497.318 272.38C496.764 272.38 496.331 272.55 496.018 272.89C495.704 273.23 495.548 273.707 495.548 274.32V277H494.838V271.74H495.518V272.77ZM506.009 275.13H502.109L501.269 277H500.499L503.699 270H504.429L507.629 277H506.849L506.009 275.13ZM505.739 274.53L504.059 270.77L502.379 274.53H505.739ZM513.388 269.58V277H512.708V275.96C512.494 276.313 512.211 276.583 511.858 276.77C511.511 276.957 511.118 277.05 510.678 277.05C510.184 277.05 509.738 276.937 509.338 276.71C508.938 276.483 508.624 276.167 508.398 275.76C508.171 275.353 508.058 274.89 508.058 274.37C508.058 273.85 508.171 273.387 508.398 272.98C508.624 272.573 508.938 272.26 509.338 272.04C509.738 271.813 510.184 271.7 510.678 271.7C511.104 271.7 511.488 271.79 511.828 271.97C512.174 272.143 512.458 272.4 512.678 272.74V269.58H513.388ZM510.738 276.42C511.104 276.42 511.434 276.337 511.728 276.17C512.028 275.997 512.261 275.753 512.428 275.44C512.601 275.127 512.688 274.77 512.688 274.37C512.688 273.97 512.601 273.613 512.428 273.3C512.261 272.987 512.028 272.747 511.728 272.58C511.434 272.407 511.104 272.32 510.738 272.32C510.364 272.32 510.028 272.407 509.728 272.58C509.434 272.747 509.201 272.987 509.028 273.3C508.861 273.613 508.778 273.97 508.778 274.37C508.778 274.77 508.861 275.127 509.028 275.44C509.201 275.753 509.434 275.997 509.728 276.17C510.028 276.337 510.364 276.42 510.738 276.42ZM520.165 269.58V277H519.485V275.96C519.272 276.313 518.988 276.583 518.635 276.77C518.288 276.957 517.895 277.05 517.455 277.05C516.962 277.05 516.515 276.937 516.115 276.71C515.715 276.483 515.402 276.167 515.175 275.76C514.948 275.353 514.835 274.89 514.835 274.37C514.835 273.85 514.948 273.387 515.175 272.98C515.402 272.573 515.715 272.26 516.115 272.04C516.515 271.813 516.962 271.7 517.455 271.7C517.882 271.7 518.265 271.79 518.605 271.97C518.952 272.143 519.235 272.4 519.455 272.74V269.58H520.165ZM517.515 276.42C517.882 276.42 518.212 276.337 518.505 276.17C518.805 275.997 519.038 275.753 519.205 275.44C519.378 275.127 519.465 274.77 519.465 274.37C519.465 273.97 519.378 273.613 519.205 273.3C519.038 272.987 518.805 272.747 518.505 272.58C518.212 272.407 517.882 272.32 517.515 272.32C517.142 272.32 516.805 272.407 516.505 272.58C516.212 272.747 515.978 272.987 515.805 273.3C515.638 273.613 515.555 273.97 515.555 274.37C515.555 274.77 515.638 275.127 515.805 275.44C515.978 275.753 516.212 275.997 516.505 276.17C516.805 276.337 517.142 276.42 517.515 276.42ZM522.822 272.77C522.989 272.417 523.236 272.15 523.562 271.97C523.896 271.79 524.306 271.7 524.792 271.7V272.39L524.622 272.38C524.069 272.38 523.636 272.55 523.322 272.89C523.009 273.23 522.852 273.707 522.852 274.32V277H522.142V271.74H522.822V272.77ZM530.609 274.59H526.209C526.249 275.137 526.459 275.58 526.839 275.92C527.219 276.253 527.699 276.42 528.279 276.42C528.606 276.42 528.906 276.363 529.179 276.25C529.452 276.13 529.689 275.957 529.889 275.73L530.289 276.19C530.056 276.47 529.762 276.683 529.409 276.83C529.062 276.977 528.679 277.05 528.259 277.05C527.719 277.05 527.239 276.937 526.819 276.71C526.406 276.477 526.082 276.157 525.849 275.75C525.616 275.343 525.499 274.883 525.499 274.37C525.499 273.857 525.609 273.397 525.829 272.99C526.056 272.583 526.362 272.267 526.749 272.04C527.142 271.813 527.582 271.7 528.069 271.7C528.556 271.7 528.992 271.813 529.379 272.04C529.766 272.267 530.069 272.583 530.289 272.99C530.509 273.39 530.619 273.85 530.619 274.37L530.609 274.59ZM528.069 272.31C527.562 272.31 527.136 272.473 526.789 272.8C526.449 273.12 526.256 273.54 526.209 274.06H529.939C529.892 273.54 529.696 273.12 529.349 272.8C529.009 272.473 528.582 272.31 528.069 272.31ZM533.474 277.05C533.048 277.05 532.638 276.99 532.244 276.87C531.858 276.743 531.554 276.587 531.334 276.4L531.654 275.84C531.874 276.013 532.151 276.157 532.484 276.27C532.818 276.377 533.164 276.43 533.524 276.43C534.004 276.43 534.358 276.357 534.584 276.21C534.818 276.057 534.934 275.843 534.934 275.57C534.934 275.377 534.871 275.227 534.744 275.12C534.618 275.007 534.458 274.923 534.264 274.87C534.071 274.81 533.814 274.753 533.494 274.7C533.068 274.62 532.724 274.54 532.464 274.46C532.204 274.373 531.981 274.23 531.794 274.03C531.614 273.83 531.524 273.553 531.524 273.2C531.524 272.76 531.708 272.4 532.074 272.12C532.441 271.84 532.951 271.7 533.604 271.7C533.944 271.7 534.284 271.747 534.624 271.84C534.964 271.927 535.244 272.043 535.464 272.19L535.154 272.76C534.721 272.46 534.204 272.31 533.604 272.31C533.151 272.31 532.808 272.39 532.574 272.55C532.348 272.71 532.234 272.92 532.234 273.18C532.234 273.38 532.298 273.54 532.424 273.66C532.558 273.78 532.721 273.87 532.914 273.93C533.108 273.983 533.374 274.04 533.714 274.1C534.134 274.18 534.471 274.26 534.724 274.34C534.978 274.42 535.194 274.557 535.374 274.75C535.554 274.943 535.644 275.21 535.644 275.55C535.644 276.01 535.451 276.377 535.064 276.65C534.684 276.917 534.154 277.05 533.474 277.05ZM538.367 277.05C537.94 277.05 537.53 276.99 537.137 276.87C536.75 276.743 536.447 276.587 536.227 276.4L536.547 275.84C536.767 276.013 537.043 276.157 537.377 276.27C537.71 276.377 538.057 276.43 538.417 276.43C538.897 276.43 539.25 276.357 539.477 276.21C539.71 276.057 539.827 275.843 539.827 275.57C539.827 275.377 539.763 275.227 539.637 275.12C539.51 275.007 539.35 274.923 539.157 274.87C538.963 274.81 538.707 274.753 538.387 274.7C537.96 274.62 537.617 274.54 537.357 274.46C537.097 274.373 536.873 274.23 536.687 274.03C536.507 273.83 536.417 273.553 536.417 273.2C536.417 272.76 536.6 272.4 536.967 272.12C537.333 271.84 537.843 271.7 538.497 271.7C538.837 271.7 539.177 271.747 539.517 271.84C539.857 271.927 540.137 272.043 540.357 272.19L540.047 272.76C539.613 272.46 539.097 272.31 538.497 272.31C538.043 272.31 537.7 272.39 537.467 272.55C537.24 272.71 537.127 272.92 537.127 273.18C537.127 273.38 537.19 273.54 537.317 273.66C537.45 273.78 537.613 273.87 537.807 273.93C538 273.983 538.267 274.04 538.607 274.1C539.027 274.18 539.363 274.26 539.617 274.34C539.87 274.42 540.087 274.557 540.267 274.75C540.447 274.943 540.537 275.21 540.537 275.55C540.537 276.01 540.343 276.377 539.957 276.65C539.577 276.917 539.047 277.05 538.367 277.05Z" fill="#455A64"/>
<path d="M405.76 364C406.653 364 407.353 364.213 407.86 364.64C408.367 365.067 408.62 365.653 408.62 366.4C408.62 367.147 408.367 367.733 407.86 368.16C407.353 368.58 406.653 368.79 405.76 368.79H403.88V371H403.14V364H405.76ZM405.74 368.14C406.433 368.14 406.963 367.99 407.33 367.69C407.697 367.383 407.88 366.953 407.88 366.4C407.88 365.833 407.697 365.4 407.33 365.1C406.963 364.793 406.433 364.64 405.74 364.64H403.88V368.14H405.74ZM410.168 363.58H410.878V371H410.168V363.58ZM415.003 371.05C414.497 371.05 414.04 370.937 413.633 370.71C413.227 370.477 412.907 370.157 412.673 369.75C412.44 369.343 412.323 368.883 412.323 368.37C412.323 367.857 412.44 367.397 412.673 366.99C412.907 366.583 413.227 366.267 413.633 366.04C414.04 365.813 414.497 365.7 415.003 365.7C415.51 365.7 415.967 365.813 416.373 366.04C416.78 366.267 417.097 366.583 417.323 366.99C417.557 367.397 417.673 367.857 417.673 368.37C417.673 368.883 417.557 369.343 417.323 369.75C417.097 370.157 416.78 370.477 416.373 370.71C415.967 370.937 415.51 371.05 415.003 371.05ZM415.003 370.42C415.377 370.42 415.71 370.337 416.003 370.17C416.303 369.997 416.537 369.753 416.703 369.44C416.87 369.127 416.953 368.77 416.953 368.37C416.953 367.97 416.87 367.613 416.703 367.3C416.537 366.987 416.303 366.747 416.003 366.58C415.71 366.407 415.377 366.32 415.003 366.32C414.63 366.32 414.293 366.407 413.993 366.58C413.7 366.747 413.467 366.987 413.293 367.3C413.127 367.613 413.043 367.97 413.043 368.37C413.043 368.77 413.127 369.127 413.293 369.44C413.467 369.753 413.7 369.997 413.993 370.17C414.293 370.337 414.63 370.42 415.003 370.42ZM421.893 370.68C421.759 370.8 421.593 370.893 421.393 370.96C421.199 371.02 420.996 371.05 420.783 371.05C420.289 371.05 419.909 370.917 419.643 370.65C419.376 370.383 419.243 370.007 419.243 369.52V366.34H418.303V365.74H419.243V364.59H419.953V365.74H421.553V366.34H419.953V369.48C419.953 369.793 420.029 370.033 420.183 370.2C420.343 370.36 420.569 370.44 420.863 370.44C421.009 370.44 421.149 370.417 421.283 370.37C421.423 370.323 421.543 370.257 421.643 370.17L421.893 370.68ZM427.173 366.87C428.186 366.87 428.923 367.053 429.383 367.42C429.849 367.78 430.083 368.287 430.083 368.94C430.083 369.347 429.986 369.71 429.793 370.03C429.606 370.35 429.323 370.603 428.943 370.79C428.563 370.97 428.096 371.06 427.543 371.06C427.043 371.06 426.566 370.98 426.113 370.82C425.666 370.653 425.306 370.433 425.033 370.16L425.383 369.59C425.616 369.83 425.923 370.027 426.303 370.18C426.683 370.327 427.093 370.4 427.533 370.4C428.113 370.4 428.559 370.27 428.873 370.01C429.193 369.75 429.353 369.403 429.353 368.97C429.353 368.49 429.173 368.127 428.813 367.88C428.459 367.633 427.859 367.51 427.013 367.51H425.523L425.883 364H429.713V364.64H426.513L426.273 366.87H427.173ZM433.787 371.06C433.247 371.06 432.763 370.917 432.337 370.63C431.917 370.343 431.587 369.933 431.347 369.4C431.113 368.86 430.997 368.227 430.997 367.5C430.997 366.773 431.113 366.143 431.347 365.61C431.587 365.07 431.917 364.657 432.337 364.37C432.763 364.083 433.247 363.94 433.787 363.94C434.327 363.94 434.807 364.083 435.227 364.37C435.653 364.657 435.987 365.07 436.227 365.61C436.467 366.143 436.587 366.773 436.587 367.5C436.587 368.227 436.467 368.86 436.227 369.4C435.987 369.933 435.653 370.343 435.227 370.63C434.807 370.917 434.327 371.06 433.787 371.06ZM433.787 370.4C434.193 370.4 434.55 370.287 434.857 370.06C435.17 369.833 435.413 369.503 435.587 369.07C435.76 368.637 435.847 368.113 435.847 367.5C435.847 366.887 435.76 366.363 435.587 365.93C435.413 365.497 435.17 365.167 434.857 364.94C434.55 364.713 434.193 364.6 433.787 364.6C433.38 364.6 433.02 364.713 432.707 364.94C432.4 365.167 432.16 365.497 431.987 365.93C431.813 366.363 431.727 366.887 431.727 367.5C431.727 368.113 431.813 368.637 431.987 369.07C432.16 369.503 432.4 369.833 432.707 370.06C433.02 370.287 433.38 370.4 433.787 370.4ZM438.06 369.96C438.214 369.96 438.34 370.013 438.44 370.12C438.54 370.22 438.59 370.347 438.59 370.5C438.59 370.58 438.577 370.667 438.55 370.76C438.53 370.853 438.497 370.96 438.45 371.08L438.03 372.46H437.55L437.89 371.01C437.784 370.977 437.697 370.917 437.63 370.83C437.564 370.737 437.53 370.627 437.53 370.5C437.53 370.347 437.58 370.22 437.68 370.12C437.78 370.013 437.907 369.96 438.06 369.96ZM444.797 371.06C444.277 371.06 443.777 370.977 443.297 370.81C442.823 370.643 442.457 370.423 442.197 370.15L442.487 369.58C442.74 369.833 443.077 370.04 443.497 370.2C443.917 370.353 444.35 370.43 444.797 370.43C445.423 370.43 445.893 370.317 446.207 370.09C446.52 369.857 446.677 369.557 446.677 369.19C446.677 368.91 446.59 368.687 446.417 368.52C446.25 368.353 446.043 368.227 445.797 368.14C445.55 368.047 445.207 367.947 444.767 367.84C444.24 367.707 443.82 367.58 443.507 367.46C443.193 367.333 442.923 367.143 442.697 366.89C442.477 366.637 442.367 366.293 442.367 365.86C442.367 365.507 442.46 365.187 442.647 364.9C442.833 364.607 443.12 364.373 443.507 364.2C443.893 364.027 444.373 363.94 444.947 363.94C445.347 363.94 445.737 363.997 446.117 364.11C446.503 364.217 446.837 364.367 447.117 364.56L446.867 365.15C446.573 364.957 446.26 364.813 445.927 364.72C445.593 364.62 445.267 364.57 444.947 364.57C444.333 364.57 443.87 364.69 443.557 364.93C443.25 365.163 443.097 365.467 443.097 365.84C443.097 366.12 443.18 366.347 443.347 366.52C443.52 366.687 443.733 366.817 443.987 366.91C444.247 366.997 444.593 367.093 445.027 367.2C445.54 367.327 445.953 367.453 446.267 367.58C446.587 367.7 446.857 367.887 447.077 368.14C447.297 368.387 447.407 368.723 447.407 369.15C447.407 369.503 447.31 369.827 447.117 370.12C446.93 370.407 446.64 370.637 446.247 370.81C445.853 370.977 445.37 371.06 444.797 371.06ZM453.449 368.59H449.049C449.089 369.137 449.299 369.58 449.679 369.92C450.059 370.253 450.539 370.42 451.119 370.42C451.446 370.42 451.746 370.363 452.019 370.25C452.292 370.13 452.529 369.957 452.729 369.73L453.129 370.19C452.896 370.47 452.602 370.683 452.249 370.83C451.902 370.977 451.519 371.05 451.099 371.05C450.559 371.05 450.079 370.937 449.659 370.71C449.246 370.477 448.922 370.157 448.689 369.75C448.456 369.343 448.339 368.883 448.339 368.37C448.339 367.857 448.449 367.397 448.669 366.99C448.896 366.583 449.202 366.267 449.589 366.04C449.982 365.813 450.422 365.7 450.909 365.7C451.396 365.7 451.832 365.813 452.219 366.04C452.606 366.267 452.909 366.583 453.129 366.99C453.349 367.39 453.459 367.85 453.459 368.37L453.449 368.59ZM450.909 366.31C450.402 366.31 449.976 366.473 449.629 366.8C449.289 367.12 449.096 367.54 449.049 368.06H452.779C452.732 367.54 452.536 367.12 452.189 366.8C451.849 366.473 451.422 366.31 450.909 366.31ZM457.084 371.05C456.564 371.05 456.097 370.937 455.684 370.71C455.277 370.483 454.957 370.167 454.724 369.76C454.491 369.347 454.374 368.883 454.374 368.37C454.374 367.857 454.491 367.397 454.724 366.99C454.957 366.583 455.277 366.267 455.684 366.04C456.097 365.813 456.564 365.7 457.084 365.7C457.537 365.7 457.941 365.79 458.294 365.97C458.654 366.143 458.937 366.4 459.144 366.74L458.614 367.1C458.441 366.84 458.221 366.647 457.954 366.52C457.687 366.387 457.397 366.32 457.084 366.32C456.704 366.32 456.361 366.407 456.054 366.58C455.754 366.747 455.517 366.987 455.344 367.3C455.177 367.613 455.094 367.97 455.094 368.37C455.094 368.777 455.177 369.137 455.344 369.45C455.517 369.757 455.754 369.997 456.054 370.17C456.361 370.337 456.704 370.42 457.084 370.42C457.397 370.42 457.687 370.357 457.954 370.23C458.221 370.103 458.441 369.91 458.614 369.65L459.144 370.01C458.937 370.35 458.654 370.61 458.294 370.79C457.934 370.963 457.531 371.05 457.084 371.05ZM466.696 367.33C467.136 367.477 467.473 367.697 467.706 367.99C467.946 368.283 468.066 368.637 468.066 369.05C468.066 369.457 467.956 369.813 467.736 370.12C467.516 370.42 467.199 370.653 466.786 370.82C466.379 370.98 465.899 371.06 465.346 371.06C464.506 371.06 463.846 370.88 463.366 370.52C462.886 370.16 462.646 369.67 462.646 369.05C462.646 368.63 462.759 368.277 462.986 367.99C463.219 367.697 463.556 367.477 463.996 367.33C463.636 367.19 463.363 366.99 463.176 366.73C462.989 366.463 462.896 366.15 462.896 365.79C462.896 365.223 463.116 364.773 463.556 364.44C464.003 364.107 464.599 363.94 465.346 363.94C465.839 363.94 466.269 364.017 466.636 364.17C467.009 364.317 467.299 364.53 467.506 364.81C467.713 365.09 467.816 365.417 467.816 365.79C467.816 366.15 467.719 366.463 467.526 366.73C467.333 366.99 467.056 367.19 466.696 367.33ZM463.616 365.81C463.616 366.197 463.769 366.503 464.076 366.73C464.383 366.957 464.806 367.07 465.346 367.07C465.886 367.07 466.309 366.957 466.616 366.73C466.929 366.503 467.086 366.2 467.086 365.82C467.086 365.427 466.926 365.117 466.606 364.89C466.293 364.663 465.873 364.55 465.346 364.55C464.813 364.55 464.389 364.663 464.076 364.89C463.769 365.117 463.616 365.423 463.616 365.81ZM465.346 370.45C465.966 370.45 466.449 370.323 466.796 370.07C467.149 369.817 467.326 369.473 467.326 369.04C467.326 368.607 467.149 368.267 466.796 368.02C466.449 367.767 465.966 367.64 465.346 367.64C464.733 367.64 464.249 367.767 463.896 368.02C463.549 368.267 463.376 368.607 463.376 369.04C463.376 369.48 463.549 369.827 463.896 370.08C464.243 370.327 464.726 370.45 465.346 370.45ZM473.843 370.36V371H468.933V370.49L471.843 367.64C472.21 367.28 472.456 366.97 472.583 366.71C472.716 366.443 472.783 366.177 472.783 365.91C472.783 365.497 472.64 365.177 472.353 364.95C472.073 364.717 471.67 364.6 471.143 364.6C470.323 364.6 469.686 364.86 469.233 365.38L468.723 364.94C468.996 364.62 469.343 364.373 469.763 364.2C470.19 364.027 470.67 363.94 471.203 363.94C471.916 363.94 472.48 364.11 472.893 364.45C473.313 364.783 473.523 365.243 473.523 365.83C473.523 366.19 473.443 366.537 473.283 366.87C473.123 367.203 472.82 367.587 472.373 368.02L469.993 370.36H473.843ZM478.734 371.06C478.334 371.06 477.964 370.973 477.624 370.8C477.284 370.627 477.007 370.38 476.794 370.06L477.234 369.56C477.62 370.133 478.124 370.42 478.744 370.42C479.61 370.42 480.044 369.907 480.044 368.88V364.64H477.484V364H480.774V368.85C480.774 369.583 480.6 370.137 480.254 370.51C479.914 370.877 479.407 371.06 478.734 371.06ZM482.994 364H483.734V370.36H487.654V371H482.994V364ZM491.502 364C492.396 364 493.096 364.213 493.602 364.64C494.109 365.067 494.362 365.653 494.362 366.4C494.362 367.147 494.109 367.733 493.602 368.16C493.096 368.58 492.396 368.79 491.502 368.79H489.622V371H488.882V364H491.502ZM491.482 368.14C492.176 368.14 492.706 367.99 493.072 367.69C493.439 367.383 493.622 366.953 493.622 366.4C493.622 365.833 493.439 365.4 493.072 365.1C492.706 364.793 492.176 364.64 491.482 364.64H489.622V368.14H491.482ZM495.962 364H496.702V370.36H500.622V371H495.962V364ZM511.738 364V371H511.028V365.4L508.278 370.11H507.928L505.178 365.43V371H504.468V364H505.078L508.118 369.19L511.128 364H511.738ZM516.019 371.05C515.512 371.05 515.056 370.937 514.649 370.71C514.242 370.477 513.922 370.157 513.689 369.75C513.456 369.343 513.339 368.883 513.339 368.37C513.339 367.857 513.456 367.397 513.689 366.99C513.922 366.583 514.242 366.267 514.649 366.04C515.056 365.813 515.512 365.7 516.019 365.7C516.526 365.7 516.982 365.813 517.389 366.04C517.796 366.267 518.112 366.583 518.339 366.99C518.572 367.397 518.689 367.857 518.689 368.37C518.689 368.883 518.572 369.343 518.339 369.75C518.112 370.157 517.796 370.477 517.389 370.71C516.982 370.937 516.526 371.05 516.019 371.05ZM516.019 370.42C516.392 370.42 516.726 370.337 517.019 370.17C517.319 369.997 517.552 369.753 517.719 369.44C517.886 369.127 517.969 368.77 517.969 368.37C517.969 367.97 517.886 367.613 517.719 367.3C517.552 366.987 517.319 366.747 517.019 366.58C516.726 366.407 516.392 366.32 516.019 366.32C515.646 366.32 515.309 366.407 515.009 366.58C514.716 366.747 514.482 366.987 514.309 367.3C514.142 367.613 514.059 367.97 514.059 368.37C514.059 368.77 514.142 369.127 514.309 369.44C514.482 369.753 514.716 369.997 515.009 370.17C515.309 370.337 515.646 370.42 516.019 370.42ZM522.818 365.7C523.478 365.7 524.002 365.893 524.388 366.28C524.782 366.66 524.978 367.217 524.978 367.95V371H524.268V368.02C524.268 367.473 524.132 367.057 523.858 366.77C523.585 366.483 523.195 366.34 522.688 366.34C522.122 366.34 521.672 366.51 521.338 366.85C521.012 367.183 520.848 367.647 520.848 368.24V371H520.138V363.58H520.848V366.66C521.042 366.353 521.308 366.117 521.648 365.95C521.988 365.783 522.378 365.7 522.818 365.7ZM528.746 365.7C529.433 365.7 529.959 365.873 530.326 366.22C530.693 366.56 530.876 367.067 530.876 367.74V371H530.196V370.18C530.036 370.453 529.799 370.667 529.486 370.82C529.179 370.973 528.813 371.05 528.386 371.05C527.799 371.05 527.333 370.91 526.986 370.63C526.639 370.35 526.466 369.98 526.466 369.52C526.466 369.073 526.626 368.713 526.946 368.44C527.273 368.167 527.789 368.03 528.496 368.03H530.166V367.71C530.166 367.257 530.039 366.913 529.786 366.68C529.533 366.44 529.163 366.32 528.676 366.32C528.343 366.32 528.023 366.377 527.716 366.49C527.409 366.597 527.146 366.747 526.926 366.94L526.606 366.41C526.873 366.183 527.193 366.01 527.566 365.89C527.939 365.763 528.333 365.7 528.746 365.7ZM528.496 370.49C528.896 370.49 529.239 370.4 529.526 370.22C529.813 370.033 530.026 369.767 530.166 369.42V368.56H528.516C527.616 368.56 527.166 368.873 527.166 369.5C527.166 369.807 527.283 370.05 527.516 370.23C527.749 370.403 528.076 370.49 528.496 370.49ZM532.804 363.58H533.514V371H532.804V363.58ZM535.49 365.74H536.2V371H535.49V365.74ZM535.85 364.59C535.703 364.59 535.58 364.54 535.48 364.44C535.38 364.34 535.33 364.22 535.33 364.08C535.33 363.947 535.38 363.83 535.48 363.73C535.58 363.63 535.703 363.58 535.85 363.58C535.997 363.58 536.12 363.63 536.22 363.73C536.32 363.823 536.37 363.937 536.37 364.07C536.37 364.217 536.32 364.34 536.22 364.44C536.12 364.54 535.997 364.59 535.85 364.59Z" fill="#E0E0E0"/>
<path d="M614.44 388.617C614.892 388.571 615.336 388.466 615.761 388.304C616.38 388.061 616.919 387.649 617.315 387.115C617.711 386.58 617.948 385.945 617.999 385.281C617.999 381.722 617.999 376.529 617.999 369.858C617.999 366.522 617.999 362.784 617.999 358.665C617.999 357.657 617.999 356.605 617.999 355.553C618.145 354.532 617.923 353.493 617.372 352.621C617.064 352.203 616.663 351.862 616.201 351.625C615.739 351.388 615.228 351.261 614.709 351.255H611.216H578.869L391.635 350.561C391.156 350.553 390.681 350.661 390.253 350.875C389.824 351.089 389.453 351.404 389.172 351.792C388.632 352.668 388.425 353.709 388.59 354.725C388.59 356.964 388.59 359.202 388.59 361.441C388.59 365.918 388.59 370.395 388.59 374.872C388.59 377.111 388.59 379.349 388.59 381.588C388.497 382.63 388.497 383.679 388.59 384.722C388.708 385.169 388.926 385.583 389.229 385.932C389.532 386.281 389.911 386.557 390.336 386.737C390.777 386.912 391.25 386.996 391.724 386.983H403.119L452.837 387.251L537.008 387.766L593.756 388.214L609.179 388.393H613.186C614.104 388.393 614.552 388.393 614.552 388.393H613.186H609.179H593.756H537.008L452.837 388.124L403.119 387.923H391.724C391.097 387.948 390.472 387.842 389.889 387.61C389.299 387.358 388.775 386.975 388.356 386.49C387.937 386.005 387.634 385.431 387.471 384.811C387.341 384.224 387.296 383.621 387.337 383.021V381.364C387.337 379.125 387.337 376.887 387.337 374.648C387.337 370.171 387.337 365.694 387.337 361.217C387.337 358.978 387.337 356.74 387.337 354.501C387.294 353.905 387.294 353.306 387.337 352.71C387.421 352.052 387.675 351.427 388.075 350.897C388.462 350.357 388.973 349.918 389.565 349.618C390.158 349.317 390.814 349.165 391.478 349.173L578.712 350.203L611.06 350.427H614.552C615.167 350.427 615.773 350.576 616.319 350.861C616.864 351.145 617.333 351.557 617.686 352.061C618.317 353.034 618.572 354.204 618.402 355.352C618.402 356.404 618.402 357.456 618.402 358.463C618.402 362.538 618.402 366.276 618.402 369.656C618.402 376.372 618.245 381.521 618.201 385.102C618.146 385.791 617.896 386.45 617.479 387.001C617.063 387.552 616.498 387.973 615.85 388.214C615.427 388.477 614.938 388.616 614.44 388.617Z" fill="#E0E0E0"/>
<path d="M391.485 412.606C390.791 412.606 390.165 412.452 389.605 412.146C389.051 411.839 388.615 411.416 388.295 410.876C387.981 410.329 387.825 409.719 387.825 409.046C387.825 408.372 387.981 407.766 388.295 407.226C388.615 406.679 389.055 406.252 389.615 405.946C390.175 405.639 390.801 405.486 391.495 405.486C392.015 405.486 392.495 405.572 392.935 405.746C393.375 405.919 393.748 406.172 394.055 406.506L393.585 406.976C393.038 406.422 392.348 406.146 391.515 406.146C390.961 406.146 390.458 406.272 390.005 406.526C389.551 406.779 389.195 407.126 388.935 407.566C388.681 408.006 388.555 408.499 388.555 409.046C388.555 409.592 388.681 410.086 388.935 410.526C389.195 410.966 389.551 411.312 390.005 411.566C390.458 411.819 390.961 411.946 391.515 411.946C392.355 411.946 393.045 411.666 393.585 411.106L394.055 411.576C393.748 411.909 393.371 412.166 392.925 412.346C392.485 412.519 392.005 412.606 391.485 412.606ZM395.482 407.286H396.192V412.546H395.482V407.286ZM395.842 406.136C395.696 406.136 395.572 406.086 395.472 405.986C395.372 405.886 395.322 405.766 395.322 405.626C395.322 405.492 395.372 405.376 395.472 405.276C395.572 405.176 395.696 405.126 395.842 405.126C395.989 405.126 396.112 405.176 396.212 405.276C396.312 405.369 396.362 405.482 396.362 405.616C396.362 405.762 396.312 405.886 396.212 405.986C396.112 406.086 395.989 406.136 395.842 406.136ZM400.938 412.226C400.804 412.346 400.638 412.439 400.438 412.506C400.244 412.566 400.041 412.596 399.828 412.596C399.334 412.596 398.954 412.462 398.688 412.196C398.421 411.929 398.288 411.552 398.288 411.066V407.886H397.348V407.286H398.288V406.136H398.998V407.286H400.598V407.886H398.998V411.026C398.998 411.339 399.074 411.579 399.228 411.746C399.388 411.906 399.614 411.986 399.908 411.986C400.054 411.986 400.194 411.962 400.328 411.916C400.468 411.869 400.588 411.802 400.688 411.716L400.938 412.226ZM406.553 407.286L403.923 413.176C403.709 413.669 403.463 414.019 403.183 414.226C402.903 414.432 402.566 414.536 402.173 414.536C401.919 414.536 401.683 414.496 401.463 414.416C401.243 414.336 401.053 414.216 400.893 414.056L401.223 413.526C401.489 413.792 401.809 413.926 402.183 413.926C402.423 413.926 402.626 413.859 402.793 413.726C402.966 413.592 403.126 413.366 403.273 413.046L403.503 412.536L401.153 407.286H401.893L403.873 411.756L405.853 407.286H406.553Z" fill="#455A64"/>
<path d="M406.075 451.065C405.381 451.065 404.755 450.911 404.195 450.605C403.641 450.298 403.205 449.875 402.885 449.335C402.571 448.788 402.415 448.178 402.415 447.505C402.415 446.831 402.571 446.225 402.885 445.685C403.205 445.138 403.645 444.711 404.205 444.405C404.765 444.098 405.391 443.945 406.085 443.945C406.605 443.945 407.085 444.031 407.525 444.205C407.965 444.378 408.338 444.631 408.645 444.965L408.175 445.435C407.628 444.881 406.938 444.605 406.105 444.605C405.551 444.605 405.048 444.731 404.595 444.985C404.141 445.238 403.785 445.585 403.525 446.025C403.271 446.465 403.145 446.958 403.145 447.505C403.145 448.051 403.271 448.545 403.525 448.985C403.785 449.425 404.141 449.771 404.595 450.025C405.048 450.278 405.551 450.405 406.105 450.405C406.945 450.405 407.635 450.125 408.175 449.565L408.645 450.035C408.338 450.368 407.961 450.625 407.515 450.805C407.075 450.978 406.595 451.065 406.075 451.065ZM412.752 445.705C413.412 445.705 413.935 445.898 414.322 446.285C414.715 446.665 414.912 447.221 414.912 447.955V451.005H414.202V448.025C414.202 447.478 414.065 447.061 413.792 446.775C413.519 446.488 413.129 446.345 412.622 446.345C412.055 446.345 411.605 446.515 411.272 446.855C410.945 447.188 410.782 447.651 410.782 448.245V451.005H410.072V443.585H410.782V446.665C410.975 446.358 411.242 446.121 411.582 445.955C411.922 445.788 412.312 445.705 412.752 445.705ZM418.68 445.705C419.366 445.705 419.893 445.878 420.26 446.225C420.626 446.565 420.81 447.071 420.81 447.745V451.005H420.13V450.185C419.97 450.458 419.733 450.671 419.42 450.825C419.113 450.978 418.746 451.055 418.32 451.055C417.733 451.055 417.266 450.915 416.92 450.635C416.573 450.355 416.4 449.985 416.4 449.525C416.4 449.078 416.56 448.718 416.88 448.445C417.206 448.171 417.723 448.035 418.43 448.035H420.1V447.715C420.1 447.261 419.973 446.918 419.72 446.685C419.466 446.445 419.096 446.325 418.61 446.325C418.276 446.325 417.956 446.381 417.65 446.495C417.343 446.601 417.08 446.751 416.86 446.945L416.54 446.415C416.806 446.188 417.126 446.015 417.5 445.895C417.873 445.768 418.266 445.705 418.68 445.705ZM418.43 450.495C418.83 450.495 419.173 450.405 419.46 450.225C419.746 450.038 419.96 449.771 420.1 449.425V448.565H418.45C417.55 448.565 417.1 448.878 417.1 449.505C417.1 449.811 417.216 450.055 417.45 450.235C417.683 450.408 418.01 450.495 418.43 450.495ZM425.418 445.705C426.078 445.705 426.601 445.898 426.988 446.285C427.381 446.665 427.578 447.221 427.578 447.955V451.005H426.868V448.025C426.868 447.478 426.731 447.061 426.458 446.775C426.185 446.488 425.795 446.345 425.288 446.345C424.721 446.345 424.271 446.515 423.938 446.855C423.611 447.188 423.448 447.651 423.448 448.245V451.005H422.738V445.745H423.418V446.715C423.611 446.395 423.878 446.148 424.218 445.975C424.565 445.795 424.965 445.705 425.418 445.705ZM434.325 443.585V451.005H433.645V449.965C433.432 450.318 433.148 450.588 432.795 450.775C432.448 450.961 432.055 451.055 431.615 451.055C431.122 451.055 430.675 450.941 430.275 450.715C429.875 450.488 429.562 450.171 429.335 449.765C429.108 449.358 428.995 448.895 428.995 448.375C428.995 447.855 429.108 447.391 429.335 446.985C429.562 446.578 429.875 446.265 430.275 446.045C430.675 445.818 431.122 445.705 431.615 445.705C432.042 445.705 432.425 445.795 432.765 445.975C433.112 446.148 433.395 446.405 433.615 446.745V443.585H434.325ZM431.675 450.425C432.042 450.425 432.372 450.341 432.665 450.175C432.965 450.001 433.198 449.758 433.365 449.445C433.538 449.131 433.625 448.775 433.625 448.375C433.625 447.975 433.538 447.618 433.365 447.305C433.198 446.991 432.965 446.751 432.665 446.585C432.372 446.411 432.042 446.325 431.675 446.325C431.302 446.325 430.965 446.411 430.665 446.585C430.372 446.751 430.138 446.991 429.965 447.305C429.798 447.618 429.715 447.975 429.715 448.375C429.715 448.775 429.798 449.131 429.965 449.445C430.138 449.758 430.372 450.001 430.665 450.175C430.965 450.341 431.302 450.425 431.675 450.425ZM436.303 445.745H437.013V451.005H436.303V445.745ZM436.663 444.595C436.516 444.595 436.393 444.545 436.293 444.445C436.193 444.345 436.143 444.225 436.143 444.085C436.143 443.951 436.193 443.835 436.293 443.735C436.393 443.635 436.516 443.585 436.663 443.585C436.809 443.585 436.933 443.635 437.033 443.735C437.133 443.828 437.183 443.941 437.183 444.075C437.183 444.221 437.133 444.345 437.033 444.445C436.933 444.545 436.809 444.595 436.663 444.595ZM443.858 445.745V450.365C443.858 451.258 443.638 451.918 443.198 452.345C442.765 452.778 442.108 452.995 441.228 452.995C440.741 452.995 440.278 452.921 439.838 452.775C439.405 452.635 439.051 452.438 438.778 452.185L439.138 451.645C439.391 451.871 439.698 452.048 440.058 452.175C440.425 452.301 440.808 452.365 441.208 452.365C441.875 452.365 442.365 452.208 442.678 451.895C442.991 451.588 443.148 451.108 443.148 450.455V449.785C442.928 450.118 442.638 450.371 442.278 450.545C441.925 450.718 441.531 450.805 441.098 450.805C440.605 450.805 440.155 450.698 439.748 450.485C439.348 450.265 439.031 449.961 438.798 449.575C438.571 449.181 438.458 448.738 438.458 448.245C438.458 447.751 438.571 447.311 438.798 446.925C439.031 446.538 439.348 446.238 439.748 446.025C440.148 445.811 440.598 445.705 441.098 445.705C441.545 445.705 441.948 445.795 442.308 445.975C442.668 446.155 442.958 446.415 443.178 446.755V445.745H443.858ZM441.168 450.175C441.548 450.175 441.891 450.095 442.198 449.935C442.505 449.768 442.741 449.538 442.908 449.245C443.081 448.951 443.168 448.618 443.168 448.245C443.168 447.871 443.081 447.541 442.908 447.255C442.741 446.961 442.505 446.735 442.198 446.575C441.898 446.408 441.555 446.325 441.168 446.325C440.788 446.325 440.445 446.405 440.138 446.565C439.838 446.725 439.601 446.951 439.428 447.245C439.261 447.538 439.178 447.871 439.178 448.245C439.178 448.618 439.261 448.951 439.428 449.245C439.601 449.538 439.838 449.768 440.138 449.935C440.445 450.095 440.788 450.175 441.168 450.175ZM447.684 445.705C448.37 445.705 448.897 445.878 449.264 446.225C449.63 446.565 449.814 447.071 449.814 447.745V451.005H449.134V450.185C448.974 450.458 448.737 450.671 448.424 450.825C448.117 450.978 447.75 451.055 447.324 451.055C446.737 451.055 446.27 450.915 445.924 450.635C445.577 450.355 445.404 449.985 445.404 449.525C445.404 449.078 445.564 448.718 445.884 448.445C446.21 448.171 446.727 448.035 447.434 448.035H449.104V447.715C449.104 447.261 448.977 446.918 448.724 446.685C448.47 446.445 448.1 446.325 447.614 446.325C447.28 446.325 446.96 446.381 446.654 446.495C446.347 446.601 446.084 446.751 445.864 446.945L445.544 446.415C445.81 446.188 446.13 446.015 446.504 445.895C446.877 445.768 447.27 445.705 447.684 445.705ZM447.434 450.495C447.834 450.495 448.177 450.405 448.464 450.225C448.75 450.038 448.964 449.771 449.104 449.425V448.565H447.454C446.554 448.565 446.104 448.878 446.104 449.505C446.104 449.811 446.22 450.055 446.454 450.235C446.687 450.408 447.014 450.495 447.434 450.495ZM452.422 446.775C452.589 446.421 452.835 446.155 453.162 445.975C453.495 445.795 453.905 445.705 454.392 445.705V446.395L454.222 446.385C453.669 446.385 453.235 446.555 452.922 446.895C452.609 447.235 452.452 447.711 452.452 448.325V451.005H451.742V445.745H452.422V446.775ZM458.358 445.705C459.018 445.705 459.541 445.898 459.928 446.285C460.321 446.665 460.518 447.221 460.518 447.955V451.005H459.808V448.025C459.808 447.478 459.671 447.061 459.398 446.775C459.124 446.488 458.734 446.345 458.228 446.345C457.661 446.345 457.211 446.515 456.878 446.855C456.551 447.188 456.388 447.651 456.388 448.245V451.005H455.678V443.585H456.388V446.665C456.581 446.358 456.848 446.121 457.188 445.955C457.528 445.788 457.918 445.705 458.358 445.705Z" fill="#E0E0E0"/>
<path d="M613.503 469.096C613.955 469.04 614.404 468.958 614.846 468.85C615.472 468.651 616.047 468.32 616.533 467.88C617.02 467.44 617.407 466.9 617.667 466.298C618.019 465.394 618.157 464.421 618.07 463.455C618.07 462.38 618.07 461.216 618.07 459.918C618.07 457.321 618.07 454.366 618.07 450.964V436.749C618.177 435.719 617.949 434.683 617.421 433.794C616.869 432.881 616 432.204 614.981 431.891C613.866 431.692 612.73 431.632 611.6 431.712H579.387L392.802 431.018C391.799 431.02 390.83 431.387 390.076 432.05C389.323 432.713 388.836 433.627 388.706 434.622C388.706 436.749 388.706 439.099 388.706 441.338C388.706 445.815 388.706 450.292 388.706 454.769C388.706 457.008 388.706 459.246 388.706 461.485C388.622 462.531 388.667 463.584 388.84 464.619C389.119 465.527 389.695 466.315 390.474 466.857C391.301 467.382 392.272 467.633 393.25 467.574H396.361H402.831L452.371 467.82L536.25 468.335L592.796 468.783L608.175 468.962H612.182H613.526H612.182H608.175H592.796H536.25L452.326 468.872L402.786 468.693H393.048C391.838 468.765 390.636 468.443 389.623 467.775C388.605 467.07 387.861 466.034 387.519 464.843C387.318 463.705 387.258 462.547 387.34 461.395C387.34 459.157 387.34 456.918 387.34 454.68C387.34 450.202 387.34 445.725 387.34 441.248C387.34 439.01 387.34 436.771 387.34 434.532C387.503 433.252 388.128 432.076 389.096 431.223C390.064 430.37 391.31 429.899 392.601 429.899L579.186 430.928L611.399 431.175C612.598 431.101 613.802 431.184 614.981 431.421C616.144 431.801 617.125 432.598 617.734 433.659C618.313 434.645 618.564 435.79 618.45 436.928C618.45 437.98 618.45 439.01 618.45 440.039C618.45 444.091 618.45 447.807 618.45 451.232C618.45 454.657 618.45 457.545 618.45 460.186C618.45 461.462 618.45 462.649 618.45 463.746C618.532 464.747 618.371 465.753 617.98 466.678C617.69 467.296 617.269 467.844 616.748 468.284C616.226 468.725 615.616 469.047 614.958 469.23C614.469 469.271 613.977 469.225 613.503 469.096Z" fill="#E0E0E0"/>
<path d="M390.375 493.502C389.855 493.502 389.355 493.419 388.875 493.252C388.401 493.085 388.035 492.865 387.775 492.592L388.065 492.022C388.318 492.275 388.655 492.482 389.075 492.642C389.495 492.795 389.928 492.872 390.375 492.872C391.001 492.872 391.471 492.759 391.785 492.532C392.098 492.299 392.255 491.999 392.255 491.632C392.255 491.352 392.168 491.129 391.995 490.962C391.828 490.795 391.621 490.669 391.375 490.582C391.128 490.489 390.785 490.389 390.345 490.282C389.818 490.149 389.398 490.022 389.085 489.902C388.771 489.775 388.501 489.585 388.275 489.332C388.055 489.079 387.945 488.735 387.945 488.302C387.945 487.949 388.038 487.629 388.225 487.342C388.411 487.049 388.698 486.815 389.085 486.642C389.471 486.469 389.951 486.382 390.525 486.382C390.925 486.382 391.315 486.439 391.695 486.552C392.081 486.659 392.415 486.809 392.695 487.002L392.445 487.592C392.151 487.399 391.838 487.255 391.505 487.162C391.171 487.062 390.845 487.012 390.525 487.012C389.911 487.012 389.448 487.132 389.135 487.372C388.828 487.605 388.675 487.909 388.675 488.282C388.675 488.562 388.758 488.789 388.925 488.962C389.098 489.129 389.311 489.259 389.565 489.352C389.825 489.439 390.171 489.535 390.605 489.642C391.118 489.769 391.531 489.895 391.845 490.022C392.165 490.142 392.435 490.329 392.655 490.582C392.875 490.829 392.985 491.165 392.985 491.592C392.985 491.945 392.888 492.269 392.695 492.562C392.508 492.849 392.218 493.079 391.825 493.252C391.431 493.419 390.948 493.502 390.375 493.502ZM397.217 493.122C397.084 493.242 396.917 493.335 396.717 493.402C396.524 493.462 396.32 493.492 396.107 493.492C395.614 493.492 395.234 493.359 394.967 493.092C394.7 492.825 394.567 492.449 394.567 491.962V488.782H393.627V488.182H394.567V487.032H395.277V488.182H396.877V488.782H395.277V491.922C395.277 492.235 395.354 492.475 395.507 492.642C395.667 492.802 395.894 492.882 396.187 492.882C396.334 492.882 396.474 492.859 396.607 492.812C396.747 492.765 396.867 492.699 396.967 492.612L397.217 493.122ZM400.35 488.142C401.036 488.142 401.563 488.315 401.93 488.662C402.296 489.002 402.48 489.509 402.48 490.182V493.442H401.8V492.622C401.64 492.895 401.403 493.109 401.09 493.262C400.783 493.415 400.416 493.492 399.99 493.492C399.403 493.492 398.936 493.352 398.59 493.072C398.243 492.792 398.07 492.422 398.07 491.962C398.07 491.515 398.23 491.155 398.55 490.882C398.876 490.609 399.393 490.472 400.1 490.472H401.77V490.152C401.77 489.699 401.643 489.355 401.39 489.122C401.136 488.882 400.766 488.762 400.28 488.762C399.946 488.762 399.626 488.819 399.32 488.932C399.013 489.039 398.75 489.189 398.53 489.382L398.21 488.852C398.476 488.625 398.796 488.452 399.17 488.332C399.543 488.205 399.936 488.142 400.35 488.142ZM400.1 492.932C400.5 492.932 400.843 492.842 401.13 492.662C401.416 492.475 401.63 492.209 401.77 491.862V491.002H400.12C399.22 491.002 398.77 491.315 398.77 491.942C398.77 492.249 398.886 492.492 399.12 492.672C399.353 492.845 399.68 492.932 400.1 492.932ZM407.178 493.122C407.045 493.242 406.878 493.335 406.678 493.402C406.485 493.462 406.281 493.492 406.068 493.492C405.575 493.492 405.195 493.359 404.928 493.092C404.661 492.825 404.528 492.449 404.528 491.962V488.782H403.588V488.182H404.528V487.032H405.238V488.182H406.838V488.782H405.238V491.922C405.238 492.235 405.315 492.475 405.468 492.642C405.628 492.802 405.855 492.882 406.148 492.882C406.295 492.882 406.435 492.859 406.568 492.812C406.708 492.765 406.828 492.699 406.928 492.612L407.178 493.122ZM412.865 491.032H408.465C408.505 491.579 408.715 492.022 409.095 492.362C409.475 492.695 409.955 492.862 410.535 492.862C410.862 492.862 411.162 492.805 411.435 492.692C411.708 492.572 411.945 492.399 412.145 492.172L412.545 492.632C412.312 492.912 412.018 493.125 411.665 493.272C411.318 493.419 410.935 493.492 410.515 493.492C409.975 493.492 409.495 493.379 409.075 493.152C408.662 492.919 408.338 492.599 408.105 492.192C407.872 491.785 407.755 491.325 407.755 490.812C407.755 490.299 407.865 489.839 408.085 489.432C408.312 489.025 408.618 488.709 409.005 488.482C409.398 488.255 409.838 488.142 410.325 488.142C410.812 488.142 411.248 488.255 411.635 488.482C412.022 488.709 412.325 489.025 412.545 489.432C412.765 489.832 412.875 490.292 412.875 490.812L412.865 491.032ZM410.325 488.752C409.818 488.752 409.392 488.915 409.045 489.242C408.705 489.562 408.512 489.982 408.465 490.502H412.195C412.148 489.982 411.952 489.562 411.605 489.242C411.265 488.915 410.838 488.752 410.325 488.752Z" fill="#455A64"/>
<path d="M408.99 525V532H408.26V528.77H403.88V532H403.14V525H403.88V528.12H408.26V525H408.99ZM411.125 526.74H411.835V532H411.125V526.74ZM411.485 525.59C411.338 525.59 411.215 525.54 411.115 525.44C411.015 525.34 410.965 525.22 410.965 525.08C410.965 524.947 411.015 524.83 411.115 524.73C411.215 524.63 411.338 524.58 411.485 524.58C411.631 524.58 411.755 524.63 411.855 524.73C411.955 524.823 412.005 524.937 412.005 525.07C412.005 525.217 411.955 525.34 411.855 525.44C411.755 525.54 411.631 525.59 411.485 525.59ZM420.37 526.7C421.03 526.7 421.547 526.89 421.92 527.27C422.3 527.65 422.49 528.21 422.49 528.95V532H421.78V529.02C421.78 528.473 421.647 528.057 421.38 527.77C421.12 527.483 420.75 527.34 420.27 527.34C419.724 527.34 419.294 527.51 418.98 527.85C418.667 528.183 418.51 528.647 418.51 529.24V532H417.8V529.02C417.8 528.473 417.667 528.057 417.4 527.77C417.14 527.483 416.767 527.34 416.28 527.34C415.74 527.34 415.31 527.51 414.99 527.85C414.677 528.183 414.52 528.647 414.52 529.24V532H413.81V526.74H414.49V527.7C414.677 527.38 414.937 527.133 415.27 526.96C415.604 526.787 415.987 526.7 416.42 526.7C416.86 526.7 417.24 526.793 417.56 526.98C417.887 527.167 418.13 527.443 418.29 527.81C418.484 527.463 418.76 527.193 419.12 527C419.487 526.8 419.904 526.7 420.37 526.7ZM426.256 526.7C426.942 526.7 427.469 526.873 427.836 527.22C428.202 527.56 428.386 528.067 428.386 528.74V532H427.706V531.18C427.546 531.453 427.309 531.667 426.996 531.82C426.689 531.973 426.322 532.05 425.896 532.05C425.309 532.05 424.842 531.91 424.496 531.63C424.149 531.35 423.976 530.98 423.976 530.52C423.976 530.073 424.136 529.713 424.456 529.44C424.782 529.167 425.299 529.03 426.006 529.03H427.676V528.71C427.676 528.257 427.549 527.913 427.296 527.68C427.042 527.44 426.672 527.32 426.186 527.32C425.852 527.32 425.532 527.377 425.226 527.49C424.919 527.597 424.656 527.747 424.436 527.94L424.116 527.41C424.382 527.183 424.702 527.01 425.076 526.89C425.449 526.763 425.842 526.7 426.256 526.7ZM426.006 531.49C426.406 531.49 426.749 531.4 427.036 531.22C427.322 531.033 427.536 530.767 427.676 530.42V529.56H426.026C425.126 529.56 424.676 529.873 424.676 530.5C424.676 530.807 424.792 531.05 425.026 531.23C425.259 531.403 425.586 531.49 426.006 531.49ZM432.514 532.05C431.994 532.05 431.527 531.937 431.114 531.71C430.707 531.483 430.387 531.167 430.154 530.76C429.92 530.347 429.804 529.883 429.804 529.37C429.804 528.857 429.92 528.397 430.154 527.99C430.387 527.583 430.707 527.267 431.114 527.04C431.527 526.813 431.994 526.7 432.514 526.7C432.967 526.7 433.37 526.79 433.724 526.97C434.084 527.143 434.367 527.4 434.574 527.74L434.044 528.1C433.87 527.84 433.65 527.647 433.384 527.52C433.117 527.387 432.827 527.32 432.514 527.32C432.134 527.32 431.79 527.407 431.484 527.58C431.184 527.747 430.947 527.987 430.774 528.3C430.607 528.613 430.524 528.97 430.524 529.37C430.524 529.777 430.607 530.137 430.774 530.45C430.947 530.757 431.184 530.997 431.484 531.17C431.79 531.337 432.134 531.42 432.514 531.42C432.827 531.42 433.117 531.357 433.384 531.23C433.65 531.103 433.87 530.91 434.044 530.65L434.574 531.01C434.367 531.35 434.084 531.61 433.724 531.79C433.364 531.963 432.96 532.05 432.514 532.05ZM438.57 526.7C439.23 526.7 439.754 526.893 440.14 527.28C440.534 527.66 440.73 528.217 440.73 528.95V532H440.02V529.02C440.02 528.473 439.884 528.057 439.61 527.77C439.337 527.483 438.947 527.34 438.44 527.34C437.874 527.34 437.424 527.51 437.09 527.85C436.764 528.183 436.6 528.647 436.6 529.24V532H435.89V524.58H436.6V527.66C436.794 527.353 437.06 527.117 437.4 526.95C437.74 526.783 438.13 526.7 438.57 526.7ZM444.498 526.7C445.185 526.7 445.711 526.873 446.078 527.22C446.445 527.56 446.628 528.067 446.628 528.74V532H445.948V531.18C445.788 531.453 445.551 531.667 445.238 531.82C444.931 531.973 444.565 532.05 444.138 532.05C443.551 532.05 443.085 531.91 442.738 531.63C442.391 531.35 442.218 530.98 442.218 530.52C442.218 530.073 442.378 529.713 442.698 529.44C443.025 529.167 443.541 529.03 444.248 529.03H445.918V528.71C445.918 528.257 445.791 527.913 445.538 527.68C445.285 527.44 444.915 527.32 444.428 527.32C444.095 527.32 443.775 527.377 443.468 527.49C443.161 527.597 442.898 527.747 442.678 527.94L442.358 527.41C442.625 527.183 442.945 527.01 443.318 526.89C443.691 526.763 444.085 526.7 444.498 526.7ZM444.248 531.49C444.648 531.49 444.991 531.4 445.278 531.22C445.565 531.033 445.778 530.767 445.918 530.42V529.56H444.268C443.368 529.56 442.918 529.873 442.918 530.5C442.918 530.807 443.035 531.05 443.268 531.23C443.501 531.403 443.828 531.49 444.248 531.49ZM448.556 524.58H449.266V532H448.556V524.58ZM456.629 525C457.522 525 458.222 525.213 458.729 525.64C459.236 526.067 459.489 526.653 459.489 527.4C459.489 528.147 459.236 528.733 458.729 529.16C458.222 529.58 457.522 529.79 456.629 529.79H454.749V532H454.009V525H456.629ZM456.609 529.14C457.302 529.14 457.832 528.99 458.199 528.69C458.566 528.383 458.749 527.953 458.749 527.4C458.749 526.833 458.566 526.4 458.199 526.1C457.832 525.793 457.302 525.64 456.609 525.64H454.749V529.14H456.609ZM462.73 526.7C463.417 526.7 463.944 526.873 464.31 527.22C464.677 527.56 464.86 528.067 464.86 528.74V532H464.18V531.18C464.02 531.453 463.784 531.667 463.47 531.82C463.164 531.973 462.797 532.05 462.37 532.05C461.784 532.05 461.317 531.91 460.97 531.63C460.624 531.35 460.45 530.98 460.45 530.52C460.45 530.073 460.61 529.713 460.93 529.44C461.257 529.167 461.774 529.03 462.48 529.03H464.15V528.71C464.15 528.257 464.024 527.913 463.77 527.68C463.517 527.44 463.147 527.32 462.66 527.32C462.327 527.32 462.007 527.377 461.7 527.49C461.394 527.597 461.13 527.747 460.91 527.94L460.59 527.41C460.857 527.183 461.177 527.01 461.55 526.89C461.924 526.763 462.317 526.7 462.73 526.7ZM462.48 531.49C462.88 531.49 463.224 531.4 463.51 531.22C463.797 531.033 464.01 530.767 464.15 530.42V529.56H462.5C461.6 529.56 461.15 529.873 461.15 530.5C461.15 530.807 461.267 531.05 461.5 531.23C461.734 531.403 462.06 531.49 462.48 531.49ZM467.469 527.77C467.635 527.417 467.882 527.15 468.209 526.97C468.542 526.79 468.952 526.7 469.439 526.7V527.39L469.269 527.38C468.715 527.38 468.282 527.55 467.969 527.89C467.655 528.23 467.499 528.707 467.499 529.32V532H466.789V526.74H467.469V527.77ZM475.476 524.58V532H474.796V530.96C474.582 531.313 474.299 531.583 473.946 531.77C473.599 531.957 473.206 532.05 472.766 532.05C472.272 532.05 471.826 531.937 471.426 531.71C471.026 531.483 470.712 531.167 470.486 530.76C470.259 530.353 470.146 529.89 470.146 529.37C470.146 528.85 470.259 528.387 470.486 527.98C470.712 527.573 471.026 527.26 471.426 527.04C471.826 526.813 472.272 526.7 472.766 526.7C473.192 526.7 473.576 526.79 473.916 526.97C474.262 527.143 474.546 527.4 474.766 527.74V524.58H475.476ZM472.826 531.42C473.192 531.42 473.522 531.337 473.816 531.17C474.116 530.997 474.349 530.753 474.516 530.44C474.689 530.127 474.776 529.77 474.776 529.37C474.776 528.97 474.689 528.613 474.516 528.3C474.349 527.987 474.116 527.747 473.816 527.58C473.522 527.407 473.192 527.32 472.826 527.32C472.452 527.32 472.116 527.407 471.816 527.58C471.522 527.747 471.289 527.987 471.116 528.3C470.949 528.613 470.866 528.97 470.866 529.37C470.866 529.77 470.949 530.127 471.116 530.44C471.289 530.753 471.522 530.997 471.816 531.17C472.116 531.337 472.452 531.42 472.826 531.42ZM482.033 529.59H477.633C477.673 530.137 477.883 530.58 478.263 530.92C478.643 531.253 479.123 531.42 479.703 531.42C480.03 531.42 480.33 531.363 480.603 531.25C480.876 531.13 481.113 530.957 481.313 530.73L481.713 531.19C481.48 531.47 481.186 531.683 480.833 531.83C480.486 531.977 480.103 532.05 479.683 532.05C479.143 532.05 478.663 531.937 478.243 531.71C477.83 531.477 477.506 531.157 477.273 530.75C477.04 530.343 476.923 529.883 476.923 529.37C476.923 528.857 477.033 528.397 477.253 527.99C477.48 527.583 477.786 527.267 478.173 527.04C478.566 526.813 479.006 526.7 479.493 526.7C479.98 526.7 480.416 526.813 480.803 527.04C481.19 527.267 481.493 527.583 481.713 527.99C481.933 528.39 482.043 528.85 482.043 529.37L482.033 529.59ZM479.493 527.31C478.986 527.31 478.56 527.473 478.213 527.8C477.873 528.12 477.68 528.54 477.633 529.06H481.363C481.316 528.54 481.12 528.12 480.773 527.8C480.433 527.473 480.006 527.31 479.493 527.31ZM484.898 532.05C484.471 532.05 484.061 531.99 483.668 531.87C483.281 531.743 482.978 531.587 482.758 531.4L483.078 530.84C483.298 531.013 483.575 531.157 483.908 531.27C484.241 531.377 484.588 531.43 484.948 531.43C485.428 531.43 485.781 531.357 486.008 531.21C486.241 531.057 486.358 530.843 486.358 530.57C486.358 530.377 486.295 530.227 486.168 530.12C486.041 530.007 485.881 529.923 485.688 529.87C485.495 529.81 485.238 529.753 484.918 529.7C484.491 529.62 484.148 529.54 483.888 529.46C483.628 529.373 483.405 529.23 483.218 529.03C483.038 528.83 482.948 528.553 482.948 528.2C482.948 527.76 483.131 527.4 483.498 527.12C483.865 526.84 484.375 526.7 485.028 526.7C485.368 526.7 485.708 526.747 486.048 526.84C486.388 526.927 486.668 527.043 486.888 527.19L486.578 527.76C486.145 527.46 485.628 527.31 485.028 527.31C484.575 527.31 484.231 527.39 483.998 527.55C483.771 527.71 483.658 527.92 483.658 528.18C483.658 528.38 483.721 528.54 483.848 528.66C483.981 528.78 484.145 528.87 484.338 528.93C484.531 528.983 484.798 529.04 485.138 529.1C485.558 529.18 485.895 529.26 486.148 529.34C486.401 529.42 486.618 529.557 486.798 529.75C486.978 529.943 487.068 530.21 487.068 530.55C487.068 531.01 486.875 531.377 486.488 531.65C486.108 531.917 485.578 532.05 484.898 532.05ZM491.061 526.7C491.721 526.7 492.244 526.893 492.631 527.28C493.024 527.66 493.221 528.217 493.221 528.95V532H492.511V529.02C492.511 528.473 492.374 528.057 492.101 527.77C491.827 527.483 491.437 527.34 490.931 527.34C490.364 527.34 489.914 527.51 489.581 527.85C489.254 528.183 489.091 528.647 489.091 529.24V532H488.381V524.58H489.091V527.66C489.284 527.353 489.551 527.117 489.891 526.95C490.231 526.783 490.621 526.7 491.061 526.7Z" fill="#E0E0E0"/>
<path d="M403.14 606H403.88V613H403.14V606ZM408.688 607.7C409.348 607.7 409.871 607.893 410.258 608.28C410.651 608.66 410.848 609.217 410.848 609.95V613H410.138V610.02C410.138 609.473 410.001 609.057 409.728 608.77C409.454 608.483 409.064 608.34 408.558 608.34C407.991 608.34 407.541 608.51 407.208 608.85C406.881 609.183 406.718 609.647 406.718 610.24V613H406.008V607.74H406.688V608.71C406.881 608.39 407.148 608.143 407.488 607.97C407.834 607.79 408.234 607.7 408.688 607.7ZM417.595 605.58V613H416.915V611.96C416.701 612.313 416.418 612.583 416.065 612.77C415.718 612.957 415.325 613.05 414.885 613.05C414.391 613.05 413.945 612.937 413.545 612.71C413.145 612.483 412.831 612.167 412.605 611.76C412.378 611.353 412.265 610.89 412.265 610.37C412.265 609.85 412.378 609.387 412.605 608.98C412.831 608.573 413.145 608.26 413.545 608.04C413.945 607.813 414.391 607.7 414.885 607.7C415.311 607.7 415.695 607.79 416.035 607.97C416.381 608.143 416.665 608.4 416.885 608.74V605.58H417.595ZM414.945 612.42C415.311 612.42 415.641 612.337 415.935 612.17C416.235 611.997 416.468 611.753 416.635 611.44C416.808 611.127 416.895 610.77 416.895 610.37C416.895 609.97 416.808 609.613 416.635 609.3C416.468 608.987 416.235 608.747 415.935 608.58C415.641 608.407 415.311 608.32 414.945 608.32C414.571 608.32 414.235 608.407 413.935 608.58C413.641 608.747 413.408 608.987 413.235 609.3C413.068 609.613 412.985 609.97 412.985 610.37C412.985 610.77 413.068 611.127 413.235 611.44C413.408 611.753 413.641 611.997 413.935 612.17C414.235 612.337 414.571 612.42 414.945 612.42ZM419.572 607.74H420.282V613H419.572V607.74ZM419.932 606.59C419.785 606.59 419.662 606.54 419.562 606.44C419.462 606.34 419.412 606.22 419.412 606.08C419.412 605.947 419.462 605.83 419.562 605.73C419.662 605.63 419.785 605.58 419.932 605.58C420.079 605.58 420.202 605.63 420.302 605.73C420.402 605.823 420.452 605.937 420.452 606.07C420.452 606.217 420.402 606.34 420.302 606.44C420.202 606.54 420.079 606.59 419.932 606.59ZM424.098 607.7C424.784 607.7 425.311 607.873 425.678 608.22C426.044 608.56 426.228 609.067 426.228 609.74V613H425.548V612.18C425.388 612.453 425.151 612.667 424.838 612.82C424.531 612.973 424.164 613.05 423.738 613.05C423.151 613.05 422.684 612.91 422.338 612.63C421.991 612.35 421.818 611.98 421.818 611.52C421.818 611.073 421.978 610.713 422.298 610.44C422.624 610.167 423.141 610.03 423.848 610.03H425.518V609.71C425.518 609.257 425.391 608.913 425.138 608.68C424.884 608.44 424.514 608.32 424.028 608.32C423.694 608.32 423.374 608.377 423.068 608.49C422.761 608.597 422.498 608.747 422.278 608.94L421.958 608.41C422.224 608.183 422.544 608.01 422.918 607.89C423.291 607.763 423.684 607.7 424.098 607.7ZM423.848 612.49C424.248 612.49 424.591 612.4 424.878 612.22C425.164 612.033 425.378 611.767 425.518 611.42V610.56H423.868C422.968 610.56 422.518 610.873 422.518 611.5C422.518 611.807 422.634 612.05 422.868 612.23C423.101 612.403 423.428 612.49 423.848 612.49Z" fill="#E0E0E0"/>
<path d="M613.503 549.992C613.955 549.937 614.404 549.854 614.846 549.746C615.472 549.547 616.047 549.216 616.533 548.776C617.02 548.336 617.407 547.796 617.667 547.194C618.019 546.29 618.157 545.317 618.07 544.351C618.07 543.276 618.07 542.112 618.07 540.814C618.07 538.217 618.07 535.262 618.07 531.86V517.645C618.177 516.616 617.949 515.579 617.421 514.69C616.869 513.778 616 513.1 614.981 512.787C613.866 512.588 612.73 512.528 611.6 512.608H579.387L392.802 511.914C391.799 511.916 390.83 512.283 390.076 512.946C389.323 513.609 388.836 514.523 388.706 515.518C388.706 517.645 388.706 519.995 388.706 522.234C388.706 526.711 388.706 531.188 388.706 535.665C388.706 537.904 388.706 540.143 388.706 542.381C388.622 543.427 388.667 544.48 388.84 545.515C389.119 546.423 389.695 547.211 390.474 547.754C391.301 548.278 392.272 548.529 393.25 548.47H396.361H402.831L452.371 548.716L536.25 549.231L592.796 549.679L608.175 549.858H612.182H613.526H612.182H608.175H592.796H536.25L452.326 549.768L402.786 549.589H393.048C391.838 549.661 390.636 549.339 389.623 548.671C388.605 547.966 387.861 546.93 387.519 545.739C387.318 544.601 387.258 543.444 387.34 542.292C387.34 540.053 387.34 537.814 387.34 535.576C387.34 531.099 387.34 526.622 387.34 522.144C387.34 519.906 387.34 517.667 387.34 515.429C387.503 514.149 388.128 512.972 389.096 512.119C390.064 511.266 391.31 510.795 392.601 510.795L579.186 511.825L611.399 512.071C612.598 511.997 613.802 512.08 614.981 512.317C616.144 512.697 617.125 513.495 617.734 514.556C618.313 515.542 618.564 516.686 618.45 517.824C618.45 518.876 618.45 519.906 618.45 520.936C618.45 524.987 618.45 528.703 618.45 532.128C618.45 535.553 618.45 538.441 618.45 541.083C618.45 542.359 618.45 543.545 618.45 544.642C618.532 545.643 618.371 546.649 617.98 547.575C617.69 548.192 617.269 548.74 616.748 549.18C616.226 549.621 615.616 549.944 614.958 550.127C614.469 550.167 613.977 550.122 613.503 549.992Z" fill="#E0E0E0"/>
<path d="M391.485 574.398C390.791 574.398 390.165 574.245 389.605 573.938C389.051 573.631 388.615 573.208 388.295 572.668C387.981 572.121 387.825 571.511 387.825 570.838C387.825 570.165 387.981 569.558 388.295 569.018C388.615 568.471 389.055 568.045 389.615 567.738C390.175 567.431 390.801 567.278 391.495 567.278C392.015 567.278 392.495 567.365 392.935 567.538C393.375 567.711 393.748 567.965 394.055 568.298L393.585 568.768C393.038 568.215 392.348 567.938 391.515 567.938C390.961 567.938 390.458 568.065 390.005 568.318C389.551 568.571 389.195 568.918 388.935 569.358C388.681 569.798 388.555 570.291 388.555 570.838C388.555 571.385 388.681 571.878 388.935 572.318C389.195 572.758 389.551 573.105 390.005 573.358C390.458 573.611 390.961 573.738 391.515 573.738C392.355 573.738 393.045 573.458 393.585 572.898L394.055 573.368C393.748 573.701 393.371 573.958 392.925 574.138C392.485 574.311 392.005 574.398 391.485 574.398ZM397.398 574.388C396.891 574.388 396.434 574.275 396.028 574.048C395.621 573.815 395.301 573.495 395.068 573.088C394.834 572.681 394.718 572.221 394.718 571.708C394.718 571.195 394.834 570.735 395.068 570.328C395.301 569.921 395.621 569.605 396.028 569.378C396.434 569.151 396.891 569.038 397.398 569.038C397.904 569.038 398.361 569.151 398.768 569.378C399.174 569.605 399.491 569.921 399.718 570.328C399.951 570.735 400.068 571.195 400.068 571.708C400.068 572.221 399.951 572.681 399.718 573.088C399.491 573.495 399.174 573.815 398.768 574.048C398.361 574.275 397.904 574.388 397.398 574.388ZM397.398 573.758C397.771 573.758 398.104 573.675 398.398 573.508C398.698 573.335 398.931 573.091 399.098 572.778C399.264 572.465 399.348 572.108 399.348 571.708C399.348 571.308 399.264 570.951 399.098 570.638C398.931 570.325 398.698 570.085 398.398 569.918C398.104 569.745 397.771 569.658 397.398 569.658C397.024 569.658 396.688 569.745 396.388 569.918C396.094 570.085 395.861 570.325 395.688 570.638C395.521 570.951 395.438 571.308 395.438 571.708C395.438 572.108 395.521 572.465 395.688 572.778C395.861 573.091 396.094 573.335 396.388 573.508C396.688 573.675 397.024 573.758 397.398 573.758ZM406.257 569.078V574.338H405.577V573.378C405.391 573.698 405.134 573.948 404.807 574.128C404.481 574.301 404.107 574.388 403.687 574.388C403.001 574.388 402.457 574.198 402.057 573.818C401.664 573.431 401.467 572.868 401.467 572.128V569.078H402.177V572.058C402.177 572.611 402.314 573.031 402.587 573.318C402.861 573.605 403.251 573.748 403.757 573.748C404.311 573.748 404.747 573.581 405.067 573.248C405.387 572.908 405.547 572.438 405.547 571.838V569.078H406.257ZM410.926 569.038C411.586 569.038 412.109 569.231 412.496 569.618C412.889 569.998 413.086 570.555 413.086 571.288V574.338H412.376V571.358C412.376 570.811 412.239 570.395 411.966 570.108C411.693 569.821 411.303 569.678 410.796 569.678C410.229 569.678 409.779 569.848 409.446 570.188C409.119 570.521 408.956 570.985 408.956 571.578V574.338H408.246V569.078H408.926V570.048C409.119 569.728 409.386 569.481 409.726 569.308C410.073 569.128 410.473 569.038 410.926 569.038ZM417.783 574.018C417.65 574.138 417.483 574.231 417.283 574.298C417.09 574.358 416.887 574.388 416.673 574.388C416.18 574.388 415.8 574.255 415.533 573.988C415.267 573.721 415.133 573.345 415.133 572.858V569.678H414.193V569.078H415.133V567.928H415.843V569.078H417.443V569.678H415.843V572.818C415.843 573.131 415.92 573.371 416.073 573.538C416.233 573.698 416.46 573.778 416.753 573.778C416.9 573.778 417.04 573.755 417.173 573.708C417.313 573.661 417.433 573.595 417.533 573.508L417.783 574.018ZM419.756 570.108C419.923 569.755 420.169 569.488 420.496 569.308C420.829 569.128 421.239 569.038 421.726 569.038V569.728L421.556 569.718C421.003 569.718 420.569 569.888 420.256 570.228C419.943 570.568 419.786 571.045 419.786 571.658V574.338H419.076V569.078H419.756V570.108ZM427.656 569.078L425.026 574.968C424.813 575.461 424.566 575.811 424.286 576.018C424.006 576.225 423.669 576.328 423.276 576.328C423.023 576.328 422.786 576.288 422.566 576.208C422.346 576.128 422.156 576.008 421.996 575.848L422.326 575.318C422.593 575.585 422.913 575.718 423.286 575.718C423.526 575.718 423.729 575.651 423.896 575.518C424.069 575.385 424.229 575.158 424.376 574.838L424.606 574.328L422.256 569.078H422.996L424.976 573.548L426.956 569.078H427.656Z" fill="#455A64"/>
<path d="M613.302 630.634C613.754 630.58 614.203 630.498 614.645 630.388C615.267 630.19 615.841 629.862 616.327 629.426C616.813 628.99 617.201 628.455 617.465 627.858C617.816 626.954 617.954 625.981 617.868 625.015C617.868 623.918 617.868 622.776 617.868 621.456C617.868 618.881 617.868 615.904 617.868 612.501V598.286C617.975 597.257 617.747 596.221 617.219 595.331C616.654 594.436 615.789 593.77 614.779 593.451C613.665 593.244 612.53 593.176 611.399 593.25H579.186L392.601 592.556C391.597 592.558 390.628 592.925 389.875 593.588C389.121 594.251 388.634 595.165 388.504 596.16C388.504 598.398 388.504 600.637 388.504 602.875C388.504 607.353 388.504 611.83 388.504 616.307C388.504 618.545 388.504 620.784 388.504 623.023C388.421 624.061 388.466 625.107 388.638 626.134C388.906 627.048 389.484 627.839 390.273 628.373C391.094 628.909 392.07 629.161 393.048 629.089H402.786L452.326 629.358L536.205 629.873L592.752 630.32L608.13 630.499H612.138C613.033 630.499 613.481 630.499 613.481 630.499C613.481 630.499 613.033 630.499 612.138 630.499H608.13H592.752H536.205L452.326 630.253L402.786 630.052H393.048C391.837 630.134 390.632 629.811 389.623 629.134C388.605 628.428 387.861 627.392 387.519 626.201C387.318 625.064 387.258 623.906 387.34 622.754C387.34 620.515 387.34 618.277 387.34 616.038C387.34 611.561 387.34 607.084 387.34 602.607C387.34 600.368 387.34 598.13 387.34 595.779C387.498 594.501 388.118 593.325 389.083 592.471C390.047 591.618 391.29 591.146 392.578 591.145L579.163 592.175L611.376 592.421C612.576 592.348 613.78 592.43 614.958 592.668C616.121 593.048 617.102 593.845 617.712 594.906C618.291 595.892 618.542 597.037 618.428 598.174C618.428 599.227 618.428 600.279 618.428 601.286C618.428 605.338 618.428 609.054 618.428 612.479C618.428 615.904 618.428 618.792 618.428 621.433C618.428 622.709 618.428 623.896 618.428 624.993C618.514 625.994 618.352 627.001 617.958 627.925C617.667 628.543 617.247 629.091 616.725 629.531C616.204 629.971 615.593 630.294 614.936 630.477C614.411 630.657 613.851 630.71 613.302 630.634Z" fill="#E0E0E0"/>
<path d="M506.498 244.444C508.019 243.766 509.31 242.65 510.209 241.236C511.108 239.822 511.577 238.171 511.556 236.489C511.613 235.395 511.449 234.302 511.074 233.275C510.7 232.247 510.123 231.308 509.378 230.514C508.634 229.72 507.737 229.087 506.743 228.655C505.749 228.223 504.679 228 503.597 228C502.515 228 501.445 228.223 500.451 228.655C499.457 229.087 498.56 229.72 497.816 230.514C497.071 231.308 496.494 232.247 496.119 233.275C495.745 234.302 495.581 235.395 495.638 236.489C495.605 238.187 496.069 239.858 496.973 241.29C497.877 242.721 499.18 243.85 500.718 244.533C488.456 246.394 489.004 259.867 489.004 259.867L517.993 260C517.993 260 518.672 246.283 506.498 244.444Z" fill="#FF725E"/>
<path opacity="0.1" d="M506.498 244.444C508.019 243.766 509.31 242.65 510.209 241.236C511.108 239.822 511.577 238.171 511.556 236.489C511.613 235.395 511.449 234.302 511.074 233.275C510.7 232.247 510.123 231.308 509.378 230.514C508.634 229.72 507.737 229.087 506.743 228.655C505.749 228.223 504.679 228 503.597 228C502.515 228 501.445 228.223 500.451 228.655C499.457 229.087 498.56 229.72 497.816 230.514C497.071 231.308 496.494 232.247 496.119 233.275C495.745 234.302 495.581 235.395 495.638 236.489C495.605 238.187 496.069 239.858 496.973 241.29C497.877 242.721 499.18 243.85 500.718 244.533C488.456 246.394 489.004 259.867 489.004 259.867L517.993 260C517.993 260 518.672 246.283 506.498 244.444Z" fill="black"/>
<path d="M167.368 335H166.32L163.287 335.222C161.646 335.32 160.014 335.535 158.403 335.866C157.36 336.012 156.326 336.212 155.303 336.465L151.847 337.42C145.964 339.217 140.413 341.953 135.412 345.523C128.804 350.297 123.286 356.41 119.221 363.46C116.832 367.523 114.931 371.852 113.557 376.358C112.113 381.254 111.282 386.31 111.082 391.409C110.949 394.088 110.994 396.772 111.216 399.445C111.216 400.799 111.595 402.153 111.773 403.53C111.923 404.917 112.184 406.291 112.554 407.637C114.559 416.545 118.628 424.863 124.436 431.928C130.243 438.993 137.629 444.609 146.004 448.328C152.066 450.932 158.563 452.385 165.16 452.613C171.975 452.986 178.796 452.013 185.231 449.749L187.193 449.016H187.461L187.684 449.15L215.804 463.357L214.979 464.068C211.969 454.788 209.07 445.797 206.26 437.162V436.829L206.505 436.585C213.327 429.745 218.391 421.368 221.268 412.165C223.874 403.752 224.634 394.879 223.498 386.148C222.487 378.388 219.981 370.895 216.117 364.081C212.786 358.228 208.489 352.975 203.405 348.542C199.212 345.033 194.57 342.092 189.601 339.795C185.842 338.181 181.926 336.954 177.916 336.132L173.456 335.4L170.222 335.156L168.26 335.022H167.591C167.813 334.998 168.038 334.998 168.26 335.022H170.245L173.478 335.156L177.938 335.799C181.999 336.561 185.968 337.744 189.78 339.329C194.834 341.598 199.559 344.533 203.829 348.053C209.006 352.467 213.394 357.721 216.808 363.593C220.782 370.48 223.365 378.074 224.412 385.948C225.643 394.814 224.936 403.841 222.338 412.41C219.443 421.804 214.3 430.359 207.353 437.34L207.486 436.762C210.296 445.398 213.218 454.389 216.25 463.646L216.674 465L215.403 464.356L187.282 450.171H187.773L185.766 450.903C179.207 453.201 172.26 454.196 165.316 453.834C158.576 453.578 151.944 452.072 145.759 449.394C133.961 444.364 124.146 435.622 117.817 424.508C114.904 419.375 112.777 413.839 111.506 408.081C111.157 406.7 110.897 405.298 110.725 403.885C110.547 402.486 110.257 401.11 110.19 399.734C109.586 391.835 110.425 383.892 112.665 376.291C114.074 371.724 116.028 367.341 118.486 363.238C122.647 356.124 128.28 349.972 135.01 345.19C140.094 341.611 145.738 338.896 151.713 337.153L155.214 336.266C156.245 336.028 157.287 335.842 158.336 335.711C159.963 335.411 161.611 335.233 163.265 335.178L166.32 335.067C166.667 335.02 167.017 334.998 167.368 335Z" fill="#FF725E"/>
<path d="M179.865 387.036H175.716L166.744 374.339V366.002C166.744 366.002 160.329 365.595 161.092 376.508C161.854 387.42 161.092 384.641 161.092 384.641C161.092 384.641 147.477 384.641 146.355 385.884C145.234 387.126 145.166 400.366 145.009 407.754C144.923 409.535 145.431 411.293 146.451 412.751C147.471 414.208 148.945 415.28 150.639 415.797C151.114 415.929 151.604 415.998 152.097 416C155.507 416 172.845 413.221 172.845 413.221H180L179.865 387.036Z" fill="#FA5457"/>
<path d="M191 385L188.614 413H182V385.576L191 385Z" fill="#FA5457"/>
<path d="M487.374 392.253C486.477 391.333 484.258 391.782 484.258 391.782C484.48 390.489 484.48 389.169 484.258 387.877C483.854 386.62 481.03 386.867 481.03 386.867C480.9 385.808 480.9 384.738 481.03 383.68C481.052 383.445 481.002 383.209 480.886 383.005C480.769 382.8 480.593 382.636 480.38 382.535C479.044 381.99 477.608 381.73 476.166 381.772C474.44 380.538 481.434 370.73 484.034 367.588C486.634 364.446 486.163 362 483.854 362C482.263 362 474.103 371.426 471.593 374.59C469.082 377.755 462.424 386.552 462.2 379.528C461.976 372.503 459.152 367.207 457.381 366.309C455.61 365.411 453.727 367.521 454.691 369.473C455.538 371.692 456.066 374.019 456.26 376.386C456.503 378.271 456.42 380.184 456.013 382.041C455.27 385.497 454.258 388.888 452.987 392.186H452.808C452.808 392.186 403.895 439.158 400.354 442.502C397.193 445.51 333.62 438.934 320.866 437.587C316.531 436.952 312.155 436.652 307.774 436.69C302.238 436.937 301.251 437.722 295.737 437.789C281.811 437.944 267.917 439.167 254.177 441.448C247.956 442.507 242.144 445.256 237.377 449.396C232.61 453.535 229.07 458.906 227.143 464.923C214.298 505.096 185.202 600.186 180.069 653.6C176.19 660.643 172.688 667.887 169.578 675.302C165.969 685.132 166.843 685.469 168.054 685.693C171.326 686.299 175.047 668.659 176.437 672.923C177.827 677.187 169.376 693.952 172.806 694.446C177.289 695.074 180.853 676.492 181.279 675.01C181.705 673.529 183.924 674 183.521 675.392C182.871 677.367 176.572 698.306 180.965 698.979C183.386 699.338 183.655 694.917 183.655 694.917C183.655 694.917 188.139 674.876 190.178 675.28C192.218 675.684 190.044 687.511 189.013 691.461C187.982 695.411 189.416 697.408 191.523 696.443C192.958 695.77 196.388 683.763 197.329 679.858C198.271 675.953 200.624 665.135 203.785 671.397C206.946 677.659 211.743 681.294 213.716 681.384C214.16 681.333 214.579 681.149 214.919 680.858C215.258 680.566 215.503 680.179 215.621 679.747C215.739 679.315 215.725 678.857 215.582 678.433C215.438 678.009 215.17 677.638 214.814 677.367C213.117 675.708 211.661 673.819 210.488 671.756C209.442 670.149 208.683 668.372 208.246 666.505C207.343 662.782 206.817 658.977 206.677 655.148L206.318 652.904C211.339 628.015 225.798 554.964 246.668 508.305L255.231 525.945L258.952 539.007L236.132 595.406L333.463 594.126L318.938 538.154L336.579 479.802C355.656 480.229 404.635 480.947 412.795 477.244C423.061 472.755 476.166 405.606 476.166 405.606C479.627 402.913 482.942 400.037 486.096 396.988C486.096 396.988 489.324 394.273 487.374 392.253Z" fill="#FFBE9D"/>
<path d="M232.227 552.828C235.044 543.244 249.509 495.858 249.509 495.858C249.509 495.858 256.619 534.484 254.741 539.143C253.013 543.131 250.972 546.976 248.637 550.644C232.227 575.54 234.373 588 234.373 588L333.528 584.991C333.751 571.172 325.546 539.031 323.847 533.905C322.148 528.778 327.804 511.995 327.804 511.995C327.804 511.995 338.983 500.65 338.581 494.81C338.368 489.565 337.718 484.346 336.635 479.208L397 481.437L395.1 440.648L308.398 432C305.38 440.492 278.082 436.324 278.082 436.324C248.615 437.305 246.782 442.699 234.53 452.194C222.278 461.689 202 543.177 202 543.177L232.227 552.828Z" fill="#F6D51F"/>
<path d="M290 543.665C288.299 543.981 286.566 544.074 284.842 543.941C281.632 543.941 277.226 543.711 272.378 543.204C267.53 542.697 263.147 541.982 260.025 541.337C258.304 541.106 256.617 540.657 255 540C256.731 540.001 258.458 540.17 260.158 540.507C263.302 540.922 267.663 541.498 272.489 542.005C277.315 542.512 281.698 542.858 284.864 543.089C286.59 543.111 288.309 543.304 290 543.665Z" fill="#263238"/>
<path d="M297 536C295.256 536.658 293.411 537.145 291.51 537.45C282.458 539.281 273.119 540.134 263.763 539.983C261.826 540.032 259.89 539.891 258 539.564C259.911 539.378 261.837 539.302 263.763 539.337C267.325 539.249 272.225 539.057 277.625 538.568C283.024 538.079 287.834 537.38 291.237 536.821C293.128 536.432 295.054 536.158 297 536Z" fill="#263238"/>
<path d="M330 497C329.956 498.77 329.731 500.529 329.33 502.245C328.768 505.471 327.903 509.881 326.8 514.709C325.697 519.537 324.638 523.993 323.686 527.01C323.304 528.737 322.738 530.411 322 532C322.12 530.236 322.425 528.492 322.908 526.801C323.73 523.18 324.659 519.003 325.697 514.43C326.735 509.858 327.73 505.68 328.551 502.06C328.844 500.317 329.33 498.618 330 497Z" fill="#263238"/>
<path d="M232 548C227.041 547.129 222.148 545.832 217.361 544.122C212.469 542.82 207.669 541.108 203 539C207.956 539.886 212.849 541.182 217.639 542.878C222.532 544.175 227.332 545.887 232 548Z" fill="#263238"/>
<path d="M337 478.893C336.145 479.036 335.27 479.036 334.415 478.893C332.046 478.656 329.721 478.115 327.499 477.283C323.789 475.928 320.412 473.834 317.585 471.134C314.757 468.435 312.542 465.19 311.081 461.609C309.466 457.67 308.777 453.429 309.063 449.198C309.164 445.707 310.238 442.309 312.17 439.365C313.528 437.382 315.558 435.924 317.907 435.243C318.534 435.075 319.183 434.993 319.834 435C320.288 435 320.514 435 320.514 435C320.514 435 319.562 435 318.043 435.596C315.888 436.37 314.061 437.82 312.85 439.718C309.766 444.436 308.904 453.056 312.192 461.102C313.723 464.896 316.118 468.303 319.199 471.067C321.724 473.328 324.631 475.148 327.793 476.446C330.761 477.586 333.848 478.406 337 478.893Z" fill="#263238"/>
<path d="M389.466 481C389.043 474.178 388.908 467.331 389.061 460.489C388.928 453.653 389.086 446.813 389.534 440C389.957 446.814 390.092 453.655 389.939 460.489C390.081 467.332 389.923 474.181 389.466 481Z" fill="#263238"/>
<path d="M307.684 434.602C307.933 429.599 308.452 423.944 308.452 423.944C308.452 423.944 320.923 422.575 321.669 409.785C322.414 396.995 321.669 367.489 321.669 367.489L299.077 356L274 375.589L277.863 439.539L300.862 440.997C302.62 441.046 304.325 440.4 305.604 439.201C306.883 438.002 307.631 436.348 307.684 434.602Z" fill="#FFBE9D"/>
<path d="M309 399.894C309 399.894 309 400.127 308.803 400.403C308.639 400.603 308.428 400.761 308.187 400.865C307.946 400.968 307.683 401.013 307.42 400.997C306.015 400.997 304.655 399.428 304.172 397.604C303.943 396.72 303.943 395.796 304.172 394.912C304.217 394.526 304.361 394.157 304.591 393.839C304.821 393.52 305.13 393.262 305.489 393.088C305.784 392.971 306.115 392.971 306.41 393.088C306.629 393.193 306.807 393.365 306.915 393.576C307.069 393.936 306.915 394.17 306.915 394.148C306.915 394.127 306.915 393.936 306.696 393.724C306.581 393.573 306.412 393.467 306.222 393.428C306.032 393.389 305.833 393.419 305.664 393.512C305.395 393.67 305.172 393.89 305.014 394.153C304.857 394.416 304.771 394.714 304.765 395.018C304.58 395.806 304.58 396.625 304.765 397.413C305.203 399.067 306.389 400.403 307.442 400.53C307.648 400.557 307.858 400.543 308.058 400.488C308.258 400.433 308.444 400.339 308.605 400.212C308.868 400.042 308.956 399.873 309 399.894Z" fill="#EB996E"/>
<path d="M328.61 359.825C326.884 353.915 320.629 350.982 314.935 349.358C306.259 346.877 296.888 345.794 288.414 348.929C279.939 352.065 269.762 357.569 269.762 366.977C264.762 366.57 261.893 370.969 259.92 376.429C258.659 379.755 257.903 383.253 257.678 386.806C257.05 399.123 253.62 416.132 245.684 425.156C241.201 430.186 234.991 433.66 232.435 439.932C230.193 445.368 231.359 451.82 229.274 457.325C227.413 462.175 223.311 465.626 220.307 469.845C217.246 474.63 215.445 480.12 215.072 485.799C214.7 491.477 215.768 497.158 218.177 502.307C220.603 507.324 224.019 511.791 228.216 515.437C232.413 519.083 237.304 521.83 242.59 523.512C253.062 526.718 264.229 526.828 274.761 523.828C282.665 521.926 290.038 518.247 296.327 513.068C302.762 507.78 307.182 500.416 308.837 492.223C310.428 483.019 307.873 473.657 305.967 464.498C300.004 435.555 301.708 434.044 309.24 407.176C309.42 406.703 309.509 406.206 309.644 405.733C309.778 405.259 309.846 405.033 309.935 404.672C310.149 403.61 310.262 402.53 310.271 401.446C309.171 401.858 307.977 401.945 306.829 401.697C305.682 401.45 304.628 400.877 303.793 400.048C302.955 399.163 302.371 398.067 302.103 396.876C301.834 395.684 301.892 394.442 302.268 393.28C302.797 392.01 303.585 390.865 304.582 389.921C305.578 388.977 306.76 388.254 308.052 387.798C310.541 386.761 313.208 386.219 315.652 385.069C320.831 382.587 324.417 377.444 326.861 372.052C328.87 368.315 329.49 363.981 328.61 359.825Z" fill="#263238"/>
<path d="M309.956 400C310.447 400.711 310.853 401.476 311.165 402.278C311.862 403.713 312.792 405.741 313.814 408.087L314 408.52H313.512L311.188 408.725C309.584 408.725 308.236 409.022 306.656 408.999C306.519 408.968 306.391 408.904 306.285 408.813C306.18 408.721 306.099 408.605 306.052 408.475C305.983 408.268 305.983 408.044 306.052 407.837C306.106 407.53 306.175 407.226 306.261 406.926L306.679 405.308C306.89 404.229 307.217 403.175 307.655 402.164C307.612 403.264 307.449 404.356 307.167 405.422L306.842 407.04C306.726 407.586 306.517 408.429 306.842 408.361C308.004 408.361 309.654 408.11 311.188 408.019L313.512 407.814L313.21 408.315C312.211 406.037 311.374 403.896 310.886 402.415C310.458 401.659 310.145 400.845 309.956 400Z" fill="#FF725E"/>
<path d="M233.783 588.027L332.877 585L376 753.93L368.068 947.704H315.672L322.085 758.056L283.765 640.45L289.664 955.215L236.71 956L231.146 660.137C230.9 651.908 228.219 633.365 229.225 625.203L233.783 588.027Z" fill="#473B1E"/>
<path d="M297 642.964C295.393 643.057 293.781 642.969 292.198 642.701C289.232 642.376 285.182 641.807 280.734 640.996C276.286 640.184 272.303 639.25 269.426 638.499C267.888 638.189 266.4 637.698 265 637.038C265 636.733 272.214 638.317 281.066 639.961C289.918 641.605 297.044 642.66 297 642.964Z" fill="#455A64"/>
<path d="M281.946 946C281.704 946 280.634 877.282 279.546 792.522C278.459 707.762 277.82 639 278.045 639C278.269 639 279.374 707.695 280.444 792.5C281.514 877.305 282.204 946 281.946 946Z" fill="#455A64"/>
<path d="M360.497 937C360.472 936.694 360.472 936.387 360.497 936.081V933.391C360.497 930.969 360.674 927.494 360.807 923.078C361.118 914.11 361.562 901.084 362.117 885.122C363.316 853.018 365.003 808.762 366.846 759.911C366.846 759.44 366.846 758.991 366.846 758.588V758.745C355.191 711.664 344.646 668.933 336.988 638.017L328.108 601.452C327.087 597.169 326.31 593.829 325.755 591.497C325.488 590.399 325.311 589.547 325.155 588.897C325.069 588.605 325.017 588.304 325 588C325.115 588.283 325.204 588.575 325.266 588.874C325.444 589.502 325.666 590.354 325.977 591.43C326.576 593.672 327.442 597.08 328.552 601.339C330.772 609.993 333.902 622.458 337.809 637.816C345.534 668.709 356.19 711.328 368 758.476V758.633C368 759.036 368 759.507 368 759.955C366.024 808.807 364.226 853.04 362.916 885.144C362.228 901.129 361.651 914.065 361.251 923.078C361.029 927.562 360.852 930.969 360.741 933.391C360.741 934.534 360.608 935.431 360.585 936.081C360.589 936.39 360.559 936.698 360.497 937Z" fill="#455A64"/>
<path d="M344 755C340.204 756.217 336.294 757.064 332.327 757.527C327.459 758.341 323.313 758.912 321.442 759V758.56C322.051 758.736 322.366 758.846 322.366 758.934C322.366 759.022 321.983 758.934 321.352 758.934H320L321.352 758.538C323.11 758.033 327.256 757.198 332.124 756.341C336.028 755.515 340.006 755.066 344 755Z" fill="#455A64"/>
<path d="M343 760.936C339.485 761.105 335.963 760.939 332.477 760.439C328.958 760.363 325.452 759.959 322 759.232C329.042 758.629 336.13 759.204 343 760.936Z" fill="#455A64"/>
<path opacity="0.2" d="M233 592.069C234.179 593.69 235.665 595.027 237.359 595.993C239.054 596.958 240.919 597.53 242.834 597.671C246.844 598.179 250.901 598.098 254.89 597.43C280.598 594.377 307.832 591.564 333 585C300.423 586.947 266.004 586.298 233.427 588.246L233.09 591.227" fill="black"/>
<g opacity="0.2">
<path opacity="0.2" d="M266.734 637.949L285.046 709.002L283.77 640.949L266.734 637.949Z" fill="black"/>
</g>
<defs>
<filter id="filter0_f_1433_179" x="401" y="652" width="189" height="93" filterUnits="userSpaceOnUse" color-interpolation-filters="sRGB">
<feFlood flood-opacity="0" result="BackgroundImageFix"/>
<feBlend mode="normal" in="SourceGraphic" in2="BackgroundImageFix" result="shape"/>
<feGaussianBlur stdDeviation="10" result="effect1_foregroundBlur_1433_179"/>
</filter>
<linearGradient id="paint0_linear_1433_179" x1="387" y1="1.09076e-05" x2="740.606" y2="747.791" gradientUnits="userSpaceOnUse">
<stop stop-color="#FFB268"/>
<stop offset="1" stop-color="#FFB268" stop-opacity="0"/>
</linearGradient>
<linearGradient id="paint1_linear_1433_179" x1="606.726" y1="679.37" x2="536.324" y2="785.2" gradientUnits="userSpaceOnUse">
<stop stop-color="#FFC1C3"/>
<stop offset="1" stop-color="#FF5B60"/>
</linearGradient>
<linearGradient id="paint2_linear_1433_179" x1="624.395" y1="672.37" x2="558.351" y2="786.974" gradientUnits="userSpaceOnUse">
<stop stop-color="#FFC1C3"/>
<stop offset="1" stop-color="#FF5B60"/>
</linearGradient>
</defs>
</svg>
