<svg width="269" height="96" viewBox="0 0 269 96" fill="none" xmlns="http://www.w3.org/2000/svg">
<g opacity="0.2">
<circle cx="6" cy="90" r="6" transform="rotate(-90 6 90)" fill="#FD7274"/>
<circle cx="48" cy="90" r="6" transform="rotate(-90 48 90)" fill="#FD7274"/>
<circle cx="90" cy="90" r="6" transform="rotate(-90 90 90)" fill="#FD7274"/>
<circle cx="132" cy="90" r="6" transform="rotate(-90 132 90)" fill="#FD7274"/>
<circle cx="174" cy="90" r="6" transform="rotate(-90 174 90)" fill="#FD7274"/>
<circle cx="216" cy="90" r="6" transform="rotate(-90 216 90)" fill="#FD7274"/>
<circle cx="258" cy="90" r="6" transform="rotate(-90 258 90)" fill="#FD7274"/>
<circle cx="6" cy="48" r="6" transform="rotate(-90 6 48)" fill="#FD7274"/>
<circle cx="48" cy="48" r="6" transform="rotate(-90 48 48)" fill="#FD7274"/>
<circle cx="90.4375" cy="48.3406" r="6" transform="rotate(-90 90.4375 48.3406)" fill="#FD7274"/>
<circle cx="132" cy="48" r="6" transform="rotate(-90 132 48)" fill="#FD7274"/>
<circle cx="174" cy="48" r="6" transform="rotate(-90 174 48)" fill="#FD7274"/>
<circle cx="216" cy="48" r="6" transform="rotate(-90 216 48)" fill="#FD7274"/>
<circle cx="258" cy="48" r="6" transform="rotate(-90 258 48)" fill="#FD7274"/>
<circle cx="6" cy="6" r="6" transform="rotate(-90 6 6)" fill="#FD7274"/>
<circle cx="48" cy="6" r="6" transform="rotate(-90 48 6)" fill="#FD7274"/>
<circle cx="90" cy="6" r="6" transform="rotate(-90 90 6)" fill="#FD7274"/>
<circle cx="132" cy="6" r="6" transform="rotate(-90 132 6)" fill="#FD7274"/>
<circle cx="174" cy="6" r="6" transform="rotate(-90 174 6)" fill="#FD7274"/>
<circle cx="216" cy="6" r="6" transform="rotate(-90 216 6)" fill="#FD7274"/>
<circle cx="258" cy="6" r="6" transform="rotate(-90 258 6)" fill="#FD7274"/>
</g>
</svg>
